/* XPM */
static char * bombe_xpm[] = {
"64 64 337 2",
"  	c #9BB94E",
". 	c #79A863",
"+ 	c #679175",
"@ 	c #BFBA5B",
"# 	c #BCB759",
"$ 	c #6D6A31",
"% 	c #67642E",
"& 	c #3C3A18",
"* 	c #121104",
"= 	c #47451E",
"- 	c #BDB85A",
"; 	c #918D44",
"> 	c #1E2D17",
", 	c #020502",
"' 	c #000000",
") 	c #080C02",
"! 	c #42511E",
"~ 	c #B6B156",
"{ 	c #0D0D03",
"] 	c #181E07",
"^ 	c #1A2108",
"/ 	c #010101",
"( 	c #020201",
"_ 	c #0B0907",
": 	c #050403",
"< 	c #2A3E21",
"[ 	c #564539",
"} 	c #886D5B",
"| 	c #FFCCAA",
"1 	c #271F1A",
"2 	c #010000",
"3 	c #070F05",
"4 	c #D4AA8D",
"5 	c #A7866F",
"6 	c #AF8C75",
"7 	c #D1A78B",
"8 	c #F6C5A4",
"9 	c #7C6353",
"0 	c #120E0C",
"a 	c #040601",
"b 	c #689255",
"c 	c #638A50",
"d 	c #101B0B",
"e 	c #352A23",
"f 	c #322822",
"g 	c #14100D",
"h 	c #DAAE91",
"i 	c #16120F",
"j 	c #344016",
"k 	c #75A25F",
"l 	c #537543",
"m 	c #090806",
"n 	c #070605",
"o 	c #D7AC8F",
"p 	c #E9BA9B",
"q 	c #151C06",
"r 	c #25371D",
"s 	c #2C231D",
"t 	c #89A444",
"u 	c #5F854D",
"v 	c #354C2A",
"w 	c #372C25",
"x 	c #E7B99A",
"y 	c #2E251F",
"z 	c #6A8034",
"A 	c #1E260A",
"B 	c #030001",
"C 	c #400014",
"D 	c #030202",
"E 	c #303A19",
"F 	c #333F16",
"G 	c #5A6C2A",
"H 	c #6C9658",
"I 	c #262F0E",
"J 	c #020101",
"K 	c #BE987F",
"L 	c #FCCAA8",
"M 	c #29211B",
"N 	c #060504",
"O 	c #040303",
"P 	c #201915",
"Q 	c #758C39",
"R 	c #323E15",
"S 	c #1A0008",
"T 	c #FE004D",
"U 	c #140006",
"V 	c #010001",
"W 	c #040305",
"X 	c #101504",
"Y 	c #20280B",
"Z 	c #0D1103",
"` 	c #E1B496",
" .	c #28000C",
"..	c #120005",
"+.	c #3A2E27",
"@.	c #0F0E12",
"#.	c #13050A",
"$.	c #242D0D",
"%.	c #738A38",
"&.	c #859F42",
"*.	c #EEBE9F",
"=.	c #020001",
"-.	c #060002",
";.	c #313C14",
">.	c #17120F",
",.	c #9C7D68",
"'.	c #9D9669",
").	c #B5B056",
"!.	c #0B0003",
"~.	c #110005",
"{.	c #5D001C",
"].	c #131F0E",
"^.	c #131905",
"/.	c #131906",
"(.	c #3C5630",
"_.	c #557745",
":.	c #45431C",
"<.	c #2F2E11",
"[.	c #040001",
"}.	c #820028",
"|.	c #A30032",
"1.	c #A90033",
"2.	c #719D5C",
"3.	c #405C34",
"4.	c #293D20",
"5.	c #2C4022",
"6.	c #587B47",
"7.	c #648C52",
"8.	c #5F732E",
"9.	c #0A0003",
"0.	c #0C0004",
"a.	c #27000C",
"b.	c #100005",
"c.	c #4E5E24",
"d.	c #070601",
"e.	c #800027",
"f.	c #450015",
"g.	c #6E0021",
"h.	c #070002",
"i.	c #860029",
"j.	c #0A1206",
"k.	c #121D0D",
"l.	c #699356",
"m.	c #B80139",
"n.	c #F2014B",
"o.	c #96002E",
"p.	c #DB0042",
"q.	c #390011",
"r.	c #33000F",
"s.	c #160007",
"t.	c #1B2A15",
"u.	c #79A763",
"v.	c #94B14A",
"w.	c #BC0039",
"x.	c #FF004D",
"y.	c #AC0034",
"z.	c #FD004D",
"A.	c #830028",
"B.	c #CB003E",
"C.	c #460318",
"D.	c #030203",
"E.	c #648D72",
"F.	c #360010",
"G.	c #D30040",
"H.	c #8D002B",
"I.	c #1A030B",
"J.	c #203025",
"K.	c #96002D",
"L.	c #4E0018",
"M.	c #1E0009",
"N.	c #150006",
"O.	c #DF0043",
"P.	c #4C0017",
"Q.	c #020402",
"R.	c #A8A44F",
"S.	c #880029",
"T.	c #0D0004",
"U.	c #170007",
"V.	c #F6004A",
"W.	c #312F12",
"X.	c #AE0035",
"Y.	c #88843F",
"Z.	c #393716",
"`.	c #D90042",
" +	c #3F0013",
".+	c #540019",
"++	c #C5003B",
"@+	c #490016",
"#+	c #AFAB53",
"$+	c #8D8A42",
"%+	c #3B0113",
"&+	c #B80038",
"*+	c #770024",
"=+	c #740023",
"-+	c #520019",
";+	c #470015",
">+	c #CA003D",
",+	c #7A923C",
"'+	c #A6A14E",
")+	c #161505",
"!+	c #FD024E",
"~+	c #0E0004",
"{+	c #FB004C",
"]+	c #050002",
"^+	c #7D0026",
"/+	c #F10049",
"(+	c #B70037",
"_+	c #130006",
":+	c #AD0034",
"<+	c #969246",
"[+	c #080002",
"}+	c #DA0042",
"|+	c #DC0042",
"1+	c #EE0048",
"2+	c #728938",
"3+	c #55001A",
"4+	c #1D0009",
"5+	c #FF014E",
"6+	c #FFD6D6",
"7+	c #FFEFE7",
"8+	c #FFECE5",
"9+	c #FFABBB",
"0+	c #FFC5CB",
"a+	c #FFD0D3",
"b+	c #8CA846",
"c+	c #2E3812",
"d+	c #FFE3DF",
"e+	c #FFF0E8",
"f+	c #FF7699",
"g+	c #839D41",
"h+	c #FFADBC",
"i+	c #FFF0E7",
"j+	c #FFB4C0",
"k+	c #9E0030",
"l+	c #4E5F24",
"m+	c #8F002B",
"n+	c #FF306C",
"o+	c #FFEEE6",
"p+	c #FFEDE5",
"q+	c #9F0030",
"r+	c #B10035",
"s+	c #65001E",
"t+	c #FFDDDB",
"u+	c #FF9FB3",
"v+	c #A80033",
"w+	c #61884F",
"x+	c #5E834C",
"y+	c #500018",
"z+	c #AF0035",
"A+	c #3A0012",
"B+	c #FF2162",
"C+	c #FFA5B7",
"D+	c #FD004C",
"E+	c #1D2B16",
"F+	c #190008",
"G+	c #FF034F",
"H+	c #FF1158",
"I+	c #FF0953",
"J+	c #FF1258",
"K+	c #E90046",
"L+	c #6F8536",
"M+	c #304526",
"N+	c #2B000D",
"O+	c #3C0012",
"P+	c #90AC48",
"Q+	c #59001B",
"R+	c #74A15F",
"S+	c #840028",
"T+	c #180007",
"U+	c #D40040",
"V+	c #0C1508",
"W+	c #57001A",
"X+	c #141607",
"Y+	c #1F0009",
"Z+	c #AA0033",
"`+	c #9A002F",
" @	c #050A03",
".@	c #5C6F2C",
"+@	c #460015",
"@@	c #360111",
"#@	c #4F0018",
"$@	c #4A0016",
"%@	c #8E8A42",
"&@	c #405B33",
"*@	c #3E0013",
"=@	c #2D000E",
"-@	c #BB0038",
";@	c #FD014E",
">@	c #EF0048",
",@	c #090003",
"'@	c #1B0008",
")@	c #820027",
"!@	c #413F1B",
"~@	c #C4003B",
"{@	c #5A001B",
"]@	c #2D2C10",
"^@	c #524F23",
"/@	c #F00049",
"(@	c #44531F",
"_@	c #E60045",
":@	c #C7003C",
"<@	c #9AB84D",
"[@	c #5D712C",
"}@	c #D0003F",
"|@	c #4D0017",
"1@	c #24000B",
"2@	c #510018",
"3@	c #370011",
"4@	c #9F9A4A",
"5@	c #730023",
"6@	c #99002E",
"7@	c #60001D",
"8@	c #20000A",
"9@	c #EC0047",
"0@	c #EA145A",
"a@	c #AB5082",
"b@	c #48663A",
"c@	c #EA0047",
"d@	c #8B012B",
"e@	c #070306",
"f@	c #4C6B3D",
"g@	c #A40032",
"h@	c #3B0012",
"i@	c #88A244",
"j@	c #212A0C",
"k@	c #6B8034",
"l@	c #718837",
"m@	c #506125",
"n@	c #86A042",
"o@	c #526326",
"p@	c #43521E",
"q@	c #697E33",
"r@	c #8BA745",
"s@	c #8CA746",
"t@	c #92AF49",
"u@	c #98B54C",
"v@	c #9AB84E",
"  .       . .                                                   + + + + +         + + + + +             @ @ @     . .           ",
"                                                            + + + + + + + +     + + + + + + +         @ @ @ @ @   . .           ",
"                  @ @ @ @ @                               + + + @ @ @ + + + + + + + @ @ @ @ + +     @ @ @ @ @ @ @ @ . .         ",
"        @ @ @ @ @ @ @ @ @ @           + + + + +     + + + + + @ @ @ @ @ @ + + + + @ @ @ @ @ @ @ +   @ @ @ @ @ @ @ @ @           ",
"  @ @ @ @ @ @ @ @ @ @ @ @           + + + + + + + + + + + + + @ @ @ @ @ @ @ @ + @ @ @ @ @ @ @ @ @ @ @ @ @ @ @ @ @ @ @           ",
"  @ @ @ @ @ @ @ @ @ @       + +   + + + @ @ + + + + + @ @ + + + @ @ @ @ @ @ @ @ @ @ @ @ @ @ @ @ @ @ @ @ @ @ @ @ @ @ @ @ @       ",
"                          + + + + + + @ @ @ @ + + + @ @ @ @ @ + @ @ @ @ @ @ @ @ @ @ @ @ @ @ @ @ @ @ @ @ @ @ @ @ @ @ @ @ @       ",
"                          + + @ @ + + @ @ @ @ @ @ @ @ @ @ @ @ @ @ @ @ @ @ # $ % & * = -         @ @ @ @ @ . . @ @ @ @ @ @ @ @ @ ",
"@                 @ @ + + + @ @ @ @ @ @ @ @ @ @ @ @ @ @ @ @ @ @ @ @ ; > , ' ' ' ' ' ' ' ) !       @ @ @ . . . . @ @ @ @ @ @ @ @ ",
"              @ @ @ @ @ @ @ @ @ @ @ @       @ @ @ @ @         @ ~ { ' ' ' ' ' ' ' ' ' ' ' ' ] ^     . . . . . . @ @ @ @ @ @     ",
"          @ @ @ @ @ @ @ @ @ @ @ @ @           @ @ @       . . . ' ' ' ' ' / ( _ : ' ' ' ' ' ' ' ' < . . . . . .                 ",
"        @ @ @       @ @ @ @ @ @               @ @ @     . . . ' ' / [ } | | | | | | | | 1 2 ' ' ' ' ' . . . . . .               ",
"    @ @ @ @           @ @ @                       @     . . 3 ' ' 4 | | | | 5 6 7 8 | | | 9 0 ' ' ' ' ' a b . . . .             ",
"                                                    . . . c d ' e | | | f / ' ' ' ' ' 0 g | h i ' ' ' ' ' a j k . . . .         ",
"                                        . . . . . . . . . l a ' | | | m ' ' ' ' ' ' ' ' / n | | o p ' ' ' ' ' q                 ",
"        . . .                                 . . r , ' ' ' ' n | s / ' ) t   . . . u v , ' ' / w | | x y ( ' ' ' ' ) z         ",
"      . . . . .                                 A ' ' ' B C : D | D ' ' E F G     . . . H I ' ' J K | | L | M N O P Q           ",
"    . . . . . .                         @ @   R ' ' ' S T U J O | ' ' V W X Y               Z ' ' / | | | | | | ` | |   . . .   ",
". . . . . . . .                       @ @ @ @ a ' '  .T T ..' ( +.' ' @.#.' a $.%.          &.) ' ' i *.| | | | | | | . . . . . ",
". . . . . . . . . . .             @ @ @ @ @ @ ' ' ' T T T =./ / ' ' =.T T -.' ' ' . . . .         ;.' ' ' / N >.,.'.. . . . . . ",
". . . . . . . . . . . . . . . . @ @ @ @ @ @ ).' ' ' T T T !.2 ' ' ' ~.T T {.' ' ' . . . . . .     . ]., ' a a ^./.(._.. . . . . ",
". . . . . . . . . . . . . .           @ ~ :.<.' ' [.T T T }.' ' ' 2 |.T T 1.' ' ' . . . . . . . . . . . 2.3.4.5.6.7.. . . . . . ",
". . . . . . . . . . .             8.$.' ' ' ' ' ' [.T T T T 9.2 0.T T T a.b.2 ' ' . . . . . . . . . . . . . + + + + . . . . . . ",
"      + + + + . . .         c.' ' ' ' ' ' d./ ' ' e.T ~.-.-.f.g.T 2 ' ' h.i.' ' ' 3 j.k.l.. . . . . . . . + + + + + +           ",
"    + + + + + + + .         ' ' ' ' ' ..m.n.o.' ' p.T q.2 ' 2 =.' ' ' r.T s.' ' ' ' ' ' ' ' t.u.. + + + . + + + + + + + + + + + ",
"+ + + @ @ @ + + + +     v.d.' ' ' h.w.x.x.x.y.' ' z.T T A.9.2 2 ' ~.B.T T h.' ' 2 C.D.' ' ' ' ' E.+ + + + + + + + + + + + + + + ",
"+ + @ @ @ @ @ + + + + @ d.' ' ' =.x.x.x.x.x.F.' =.G.T T T T T z.T T T T T [.' ' H.x.x.I.' ' ' ' ' J.+ + @ @ @ @ + + + + @ @ @ @ ",
"@ @ @ @ @ @ @ @ @ @ @ * ' ' ' 2 K.x.x.x.x.x.L.2 M.T T T T T T T T T T T T ' ' N.x.x.x.O.P.' ' ' ' Q.@ @ @ @ @ @ @ + + @ @ @ @ @ ",
"@ @ @ @ @ @ @ @ @ R.d.' ' ' S.x.x.x.x.x.x.x.x.-.9.x.T T T T T T T T x.x.T.' ' U.x.x.x.x.x.x.V.2 ' ' ' W.@ @ @ @ @ + @ @ @ @ @ @ ",
"@ @ @ @ @ @ @ @ @ d.' ' ' ' x.x.x.x.x.x.x.x.x.2 2 S x.T T T T T T x.x.x.U.2 B x.x.x.x.x.x.x.x.X.2 ' ' ' Y.@ @ @ @ @ @ @ @ @ @ @ ",
"@ @ @ @ @ @ @ @ Z.' ' ' ' ' x.`.x.x.x.x.x.x.x.=.2 ' 2  +T T T T x.x.x.x.x..+++x.x.x.x.x.x.x.x.x.@+' ' ' ' #+@ @ @ @ @ @ @ @ @ @ ",
"@ @ @     @ @ $+' ' ' ' ' %+&+*+++=+x.x.x.x.x.-+' ' ' ' ' B ;+T x.x.x.>+U 2 [.x.x.x.x.x.x.x.x.x.x.h.' ' ' ,+    @ @ @ @ @     @ ",
"  @         '+)+' ' ' ' !+x. +~+0.{+x.x.x.x.x.x.x.b.2 ' ' ' ' ' ' ' ' ' ]+^+x.x.x.x.x.x.x.x.x.x.x.x.' ' ' ' Z     @ @           ",
"            @ ' ' ' ' 2 x.x.U.B ../+x.x.x.x.x.x.x.x.(+L._+0.B ' ' ' h.:+x.x.x.x.x.x.x.x.x.x.x.x.x.x.2 ' ' ' '     @             ",
"            <+' ' ' ' [+x.x.-.' 9.x.x.x.x.x.x.x.x.x.x.x.x.V.x.}+|+1+x.x.x.x.x.x.x.x.x.x.x.x.x.x.x.x.2 ' ' ' ' 2+  @             ",
"            R ' ' ' ' 3+x.x.' ' 4+x.x.x.x.x.x.x.x.x.x.x.x.x.x.x.x.x.x.x.x.x.5+6+7+8+9+0+a+x.x.x.x.x.S ' ' ' ' b+                ",
"            c+' ' ' ' x.x.x.' ' M.x.x.x.x.x.x.x.x.x.x.x.x.d+e+e+e+e+e+e+e+e+e+e+e+e+e+e+f+x.x.x.x.x.x. .' ' ' g+                ",
"            ) ' ' ' 2 x.x.x.' ' =.x.x.x.x.x.x.x.x.x.x.x.h+i+e+e+e+e+e+e+e+e+e+e+e+e+e+j+x.x.x.x.x.x.x.k+' ' ' ' l+  . . .       ",
"            X ' ' ' 2 x.x.m+' ' 2 b.x.x.x.x.x.x.x.x.x.x.n+o+e+e+e+e+e+e+e+e+e+e+e+e+p+x.x.x.x.x.x.x.x.q+' ' ' ' Y . . . . .     ",
"          . ' ' ' ' =.x.x.r+' ' ' =.s+x.x.x.x.x.x.x.x.x.x.x.t+e+e+e+e+e+e+e+e+e+e+u+x.x.x.x.x.x.x.x.x.v+' ' ' ' w+.     . . .   ",
"        . x+' ' ' ' y+x.x.z+' ' ' ' A+x.x.x.x.x.x.x.x.x.x.x.x.B+e+e+e+e+e+e+e+e+C+x.x.x.x.x.x.x.x.x.x.D+' ' ' ' ].        . . . ",
"      . . . E+' ' ' ;+x.x.x.2 ' ' ' ' F+x.x.x.x.x.x.x.x.x.x.x.x.x.G+H+I+J+x.x.x.x.x.x.x.x.x.x.x.x.x.x.K+' ' ' ' L+              ",
"      . . . M+' ' ' 2 x.x.x.2 2 =.' ' ' N+x.x.x.x.x.x.x.x.x.x.x.x.x.x.x.x.x.x.x.x.x.x.x.x.x.x.x.x.x.x.O+' ' ' ' P+    . . . .   ",
"    . . . . A ' ' ' 2 x.x.x.' ' -.' ' ' 2 Q+x.x.x.x.x.x.x.x.x.x.x.x.x.x.x.x.x.x.x.x.x.x.x.x.x.x.x.x.x.M.' ' ' ' R+. . . . . . . ",
". . . . .   A ' ' ' ' S+x.x.]+2 =.T+' ' ' U+x.x.x.x.x.x.x.x.x.x.x.x.x.x.x.x.x.x.x.x.x.x.x.x.x.x.x.x.x.2 ' ' ' V+. . . . . . . . ",
". . . . .   ] ' ' ' ' (+x.x.W+' ' ' X+' ' ' ' x.x.x.x.x.x.x.x.x.x.x.x.x.x.x.x.x.x.x.x.{.Y+~.Z+x.x.x.`+' ' '  @. . . . . . . . . ",
". . . .     .@' ' ' ' ' +@x.@@' ' ' 2 Q.' ' ' =.-.x.x.x.x.x.x.x.x.x.x.x.x.x.x.x.x.x.#@2 ' 0.x.x.x.x.' ' ' ' ' . .     . .       ",
"  . . . . . . d ' ' ' ' ' $@x.[+' ' ' 2 T+' ' ' ' ' 2 x.x.x.x.x.x.x.x.x.x.x.x.x.x.[.' ' ' x.x.x.x.x.' ' ' ' %@. .               ",
"  . . . . . . &@' ' ' ' ' *@x.-+-.' ' ' B =@2 ' ' ' ' ' -@x.x.x.x.x.x.x.x.T ;@>@,@' ' ' '@x.x.x.x.)@' ' ' % @ @ @               ",
"  . . . . . @ @ @ !@' ' ' ' ~@x.x.{@' ' ' ' ' ' ' ' ' ' ' ' ' ' ' ' ' ' ' ' ' ' ' ' [.x.x.x.x.x.g.' ' ' ]@@ @ @ @ @ @           ",
". . @ @ @ @ @ @ @ ^@' ' ' ' [+x.x./@,@' ' ' ' ' ' ' ' ' ' ' ' ' ' ' ' ' ' ' ' ' ' ,@x.x.x.x.x.x.b.' ' ^.      @ @ @             ",
"                  (@a ' ' ' ' ' x.x._@h.' ' ' ' ' ' ' ' ' ' ' ' ' ' ' ' ' ' ' ' ' :@x.x.x.x.x.2 ' ' ^.<@                        ",
"                    [@a ' ' ' ' ..x.x.}@[.' ' ' ' ' ' ' ' ' ' ' ' ' ' ' ' ' ' ' |@x.x.x.x.1@' ' ' '       . . . . . .           ",
"                        ^ ' ' ' ' ' ' 2 x.x.x.q.2 ' ' ' ' ' ' ' ' ' =.B 2@r+x.x.x.x.3@2 ' ' ' ' ' _.. . . . . . . . .           ",
"                        4@* ' ' ' ' ' ' =.5@x.x.>@U+6@s+7@8@0.U G.9@>@D+x.x.T 0@a@' ' ' ' ' ' j.b@. . . . . . @ @ @ .           ",
"                @ @ @ @ @ @ ' ' ' ' ' ' ' ' ' x.x.x.x.x.x.x.}@c@x.x.x.x.x.d@e@V ' ' ' ' ' j.f@w+            @ @ @ @ @           ",
"                    @ @ @ @ ] ' ' ' ' ' ' ' ' 2 [.+@x.x.x.x.x.x.x.g@h@9.B ' ' ' ' ' ' ' E+i@        @ @     @ @ @ @ @ @         ",
"                        @       Z ' ' ' ' ' ' ' ' ' ' s.-.=.' ' ' ' ' ' ' ' ' ' ' ) j@k@        @ @ @ @ @ @ @ @ @ @ @ @         ",
"                                          v.l@X ' ' ' ' ' ' ' ' ' ' a a I m@  n@              @ @ @ @ @ @ @ @ . . . @ @ @ @ @ @ ",
"@ @ @ @ @ . . .                                   &.o@p@a ' a q q@r@s@t t@                  . . . . . . . . . . . . . @ @ @ @ @ ",
". . . . . . . . . . . . .                                 u@  v@                          . . . . .     . . . . . . . . . . . . ",
". . . . . . . . . . . . . . . . . . . . . .                                         . . . . . .           . . . . . . . . . . . ",
". . . . . . . . . . . . . . . . . .                                                                             . . . . . . . . ",
". . . . . . . . . . . .                                                                                           . . .         "};
