/* XPM */
static char * collec_xpm[] = {
"64 64 246 2",
"  	c #9BB94E",
". 	c #79A863",
"+ 	c #679175",
"@ 	c #BFBA5B",
"# 	c #3A5443",
"$ 	c #030503",
"% 	c #010101",
"& 	c #393716",
"* 	c #080702",
"= 	c #545124",
"- 	c #BEB95A",
"; 	c #A39F4D",
"> 	c #979346",
", 	c #0E0D04",
"' 	c #3E3B19",
") 	c #0A0703",
"! 	c #73A05E",
"~ 	c #66632D",
"{ 	c #343716",
"] 	c #FF064D",
"^ 	c #FF004D",
"/ 	c #080F06",
"( 	c #6F9B5B",
"_ 	c #21060A",
": 	c #20050B",
"< 	c #D80041",
"[ 	c #030102",
"} 	c #1F2E17",
"| 	c #252E0E",
"1 	c #050505",
"2 	c #F1D7D4",
"3 	c #B70037",
"4 	c #030603",
"5 	c #587B47",
"6 	c #4B5B23",
"7 	c #020101",
"8 	c #020202",
"9 	c #312E2C",
"0 	c #BDB3AC",
"a 	c #FEF0E7",
"b 	c #FF497C",
"c 	c #3E5932",
"d 	c #7F983F",
"e 	c #628950",
"f 	c #2A3E21",
"g 	c #3E3A38",
"h 	c #FE3871",
"i 	c #870029",
"j 	c #6A0020",
"k 	c #5A7E49",
"l 	c #1A2109",
"m 	c #534E4B",
"n 	c #050203",
"o 	c #0C0104",
"p 	c #BD0039",
"q 	c #4B6A3D",
"r 	c #93AF49",
"s 	c #1E260B",
"t 	c #504B49",
"u 	c #0D0608",
"v 	c #060103",
"w 	c #2B000D",
"x 	c #92002C",
"y 	c #050702",
"z 	c #090D03",
"A 	c #3F3B39",
"B 	c #201E1D",
"C 	c #0A0104",
"D 	c #33000F",
"E 	c #43521E",
"F 	c #8AA545",
"G 	c #827B77",
"H 	c #3D3937",
"I 	c #0F0105",
"J 	c #20000A",
"K 	c #090103",
"L 	c #97B44C",
"M 	c #77A561",
"N 	c #BCB759",
"O 	c #655F5B",
"P 	c #060203",
"Q 	c #080103",
"R 	c #800027",
"S 	c #AC0034",
"T 	c #FE004C",
"U 	c #030101",
"V 	c #111B0C",
"W 	c #181F08",
"X 	c #95B24B",
"Y 	c #98B64C",
"Z 	c #74A25F",
"` 	c #070103",
" .	c #070606",
"..	c #1B1918",
"+.	c #D8CCC5",
"@.	c #0C0A0A",
"#.	c #8D002B",
"$.	c #30000F",
"%.	c #DF0043",
"&.	c #390011",
"*.	c #100005",
"=.	c #729F5D",
"-.	c #46541F",
";.	c #575526",
">.	c #1E1C0A",
",.	c #F4004A",
"'.	c #170007",
").	c #0E0608",
"!.	c #1C030B",
"~.	c #040102",
"{.	c #8A002A",
"].	c #030001",
"^.	c #5C814B",
"/.	c #171606",
"(.	c #7A0025",
"_.	c #480016",
":.	c #AF0035",
"<.	c #17040C",
"[.	c #1A0007",
"}.	c #4D6C3E",
"|.	c #415D4A",
"1.	c #131906",
"2.	c #2C000D",
"3.	c #C9003D",
"4.	c #7E2553",
"5.	c #29000D",
"6.	c #354D3D",
"7.	c #161C07",
"8.	c #4B0017",
"9.	c #C3003B",
"0.	c #A10031",
"a.	c #45634F",
"b.	c #394619",
"c.	c #350010",
"d.	c #E60045",
"e.	c #0C0206",
"f.	c #61896E",
"g.	c #504D22",
"h.	c #3F4D1C",
"i.	c #0D1204",
"j.	c #DA0042",
"k.	c #2E000E",
"l.	c #890029",
"m.	c #0C0307",
"n.	c #A29E4C",
"o.	c #080206",
"p.	c #B5B056",
"q.	c #2F2E12",
"r.	c #1C0008",
"s.	c #60001D",
"t.	c #020102",
"u.	c #8DA846",
"v.	c #62001E",
"w.	c #55001A",
"x.	c #030202",
"y.	c #8BA645",
"z.	c #323E15",
"A.	c #3A0012",
"B.	c #63001E",
"C.	c #C7003C",
"D.	c #3E4C1C",
"E.	c #29000C",
"F.	c #3D0012",
"G.	c #B00035",
"H.	c #840028",
"I.	c #97B54C",
"J.	c #596B2A",
"K.	c #E00044",
"L.	c #810027",
"M.	c #0F0D04",
"N.	c #414F1D",
"O.	c #1B0008",
"P.	c #23000B",
"Q.	c #312F12",
"R.	c #27000C",
"S.	c #1D0009",
"T.	c #91002C",
"U.	c #D30040",
"V.	c #0C1307",
"W.	c #6D9759",
"X.	c #4D5D23",
"Y.	c #010001",
"Z.	c #31000E",
"`.	c #1A0008",
" +	c #B20036",
".+	c #476539",
"++	c #7B0025",
"@+	c #AB0034",
"#+	c #351023",
"$+	c #5D702C",
"%+	c #27310F",
"&+	c #470015",
"*+	c #1B040D",
"=+	c #0D0004",
"-+	c #400013",
";+	c #070305",
">+	c #210712",
",+	c #648D72",
"'+	c #1E260A",
")+	c #23000A",
"!+	c #3B0012",
"~+	c #040203",
"{+	c #3F0013",
"]+	c #3E1229",
"^+	c #18050A",
"/+	c #040806",
"(+	c #93B04A",
"_+	c #040103",
":+	c #14060D",
"<+	c #70214A",
"[+	c #230A17",
"}+	c #080204",
"|+	c #380011",
"1+	c #F20049",
"2+	c #040503",
"3+	c #131205",
"4+	c #B8B357",
"5+	c #1A291F",
"6+	c #6B1F46",
"7+	c #40132A",
"8+	c #180108",
"9+	c #B9B458",
"0+	c #96B34B",
"a+	c #501734",
"b+	c #44142D",
"c+	c #060305",
"d+	c #2C0210",
"e+	c #566829",
"f+	c #511835",
"g+	c #203018",
"h+	c #446037",
"i+	c #681E44",
"j+	c #304626",
"k+	c #060B04",
"l+	c #1E2D17",
"m+	c #1F0914",
"n+	c #6C8234",
"o+	c #86A042",
"p+	c #0B0D04",
"q+	c #526326",
"r+	c #344016",
"s+	c #5B6D2B",
"t+	c #91AD49",
"u+	c #859F42",
"v+	c #5A6C2A",
"w+	c #748B39",
"  .       . .                                                   + + + + + +         + + + + +             @ @ @     . .         ",
"                                                            + + + + + + + + +     + + + + + + +         @ @ @ @ @   . .         ",
"                  @ @ @ @ @                               + + + @ @ @ @ + + + + + + + @ @ @ @ + +     @ @ @ @ @ @ @ @ . .       ",
"        @ @ @ @ @ @ @ @ @ @           + + + + +     + + + + + @ @ @ @ @ @ @ + + + + @ @ @ @ @ @ @ +   @ @ @ @ @ @ @ @ @         ",
"  @ @ @ @ @ @ @ @ @ @ @ @           + + + + + + + + + + # # $ % % & @ @ @ @ @ @ + @ @ @ @ @ @ @ @ @ @ @ @ @ @ @ @ @ @ @         ",
"  @ @ @ @ @ @ @ @ @ @       + +   + + + @ @ + + + + + @ * $ % % % % = = - @ @ @ @ @ @ @ @ @ @ @ @ @ @ @ @ @ @ @ @ @ @ @ @ @     ",
"                          + + + + + + @ @ @ @ + + + @ ; * * % % % % % % > @ @ @ @ @ @ @ @ @ @ @ @ @ @ @ @ @ @ @ @ @ @ @ @ @     ",
"                          + + @ @ + + @ @ @ @ @ @ @ @ ; * * % % % % % % > @ @ @ @ @ @ @ @         @ @ @ @ @ . . @ @ @ @ @ @ @ @ ",
"@                 @ @ + + + @ @ @ @ @ @ @ @ @ @ @ @ @ , % % % ' ' ) % % % ! . . @ @ @ @             @ @ @ . . . . @ @ @ @ @ @ @ ",
"              @ @ @ @ @ @ @ @ @ @ @ @       @ @ ~ ~ % % % % { ] ] ^ % % % / ( ( .     @               . . . . . . @ @ @ @ @ @   ",
"          @ @ @ @ @ @ @ @ @ @ @ @ @           @ * * % % _ : ^ ^ ^ ^ < < [ % } } .               . . . . . . . . .               ",
"        @ @ @       @ @ @ @ @ @               @ * * % % : : ^ ^ ^ ^ < < [ % } }               . . . . . . . . . . .             ",
"    @ @ @ @           @ @ @                   | % % % 1 2 2 ^ ^ ^ ^ ^ ^ 3 % % % 4 5 . .     . . . . . .     . . . . .           ",
"                                            6 7 8 8 9 0 a a b ^ ^ ^ ^ ^ ^ ^ 7 7 % % c . . . . . . . .           . . . . .       ",
"                                      d e f 7 8 g g a a a a h i i ^ ^ ^ ^ ^ j j 7 % % k k . . . . . .                           ",
"        . . .                         l l % 8 8 a a a a m m n % % o ^ ^ ^ ^ ^ ^ p 7 % % % q .     . .                           ",
"      . . . . .                       l l % 8 8 a a a a m m n % % o ^ ^ ^ ^ ^ ^ p 7 % % % q         . .                         ",
"    . . . . . .                   r s % % % 8 t a a a a u u v % % % w w ^ ^ ^ ^ ^ x % % % y r                             . . . ",
". . . . . . . .                   z y * * % A a a a a B [ [ [ C C 7 % % 3 ^ ^ ^ ^ ^ D % % % E                           . . . . ",
". . . . . . . . . . .         F F % * 8 8 G a a a a H [ [ [ I ^ ^ J 7 7 % ^ ^ ^ ^ ^ ^ K K % % L L                     . . . . . ",
". . . . . . . . . . . . . . . M N % % [ [ a a a O O P [ Q Q ^ ^ ^ ^ R R 7 7 S S ^ ^ ^ T T U % V W X . . . .         . . . . . . ",
". . . . . . . . . . . . . .   Y Y % % [ [ a a a O O P [ Q Q ^ ^ ^ ^ R R 7 7 S S ^ ^ ^ T T U % V V Z . . . . . . . . . . . . . . ",
". . . . . . . . . . .             % y ` `  ...+.@.@.[ [ #.#.^ ^ ^ ^ ^ ^ C % [ [ $.%.^ &.&.*.% % % =.. . . . . + + + + . . . . . ",
"      + + + + . . .           -.;.* >.,.,.'.).!.~.~.7 {.^ ^ ^ ^ ^ ^ ^ ^ ^ [ % % % % [ I I ].% % % ^.. . . . + + + + + +         ",
"    + + + + + + + .         @ @ @ * /.^ ^ ^ (._.[ [ :.^ ^ ^ ^ ^ ^ ^ ^ ^ ^ p % % % % % <.<.[.% % % }.+ + + . + + + + + + + + + + ",
"+ + + @ @ @ + + + +       @ @ @ @ * /.^ ^ ^ (._.[ [ :.^ ^ ^ ^ ^ ^ ^ ^ ^ ^ p % % % % % <.<.[.% % % |.+ + + + + + + + + + + + + + ",
"+ + @ @ @ @ @ + + + + @ @ @       % 1.^ ^ ^ ^ 2.7 7 ^ ^ ^ ^ ^ ^ ^ ^ ^ ^ ^ 3.% % % % % 4.4.5.% % % 6.+ + + @ @ @ @ + + + + @ @ @ ",
"@ @ @ @ @ @ @ @ @ @ @ @           y 7.^ ^ ^ ^ 8.[ [ 9.^ ^ ^ ^ ^ ^ ^ ^ ^ ^ 0.% % % % % 4.4.% % % % a.+ @ @ @ @ @ @ @ + + @ @ @ @ ",
"@ @ @ @ @ @ @ @ @ @ @ @       b.b.% z ^ ^ ^ ^ o 7 7 c.^ ^ ^ ^ ^ ^ ^ ^ ^ ^ d.% % % % % 4.4.e.% % % f.@ @ @ @ @ @ @ @ + @ @ @ @ @ ",
"@ @ @ @ @ @ @ @ @ @ @ @   @ @ g.h.% i.j.j.^ ^ J 7 7 k.^ ^ ^ ^ ^ ^ ^ ^ ^ ^ l.% % % % % 4.4.m.% % % n.@ @ @ @ @ @ @ @ @ @ @ @ @ @ ",
"@ @ @ @ @ @ @ @ @ @ @ @ @ @ @ g.g.% i.j.j.^ ^ J 7 7 k.^ ^ ^ ^ ^ ^ ^ ^ ^ ^ l.% % % % % 4.4.m.% % % n.@ @ @ @ @ @ @ @ @ @ @ @ @ @ ",
"@ @ @     @ @ @ @ @ @ @ @ @ @ g.g.% 7 ^ ^ ^ ^ *.% % x ^ ^ ^ ^ ^ ^ ^ ^ ^ ^ ^ % % % % % 4.4.o.% % % p.@ @ @ @       @ @ @ @ @     ",
"  @         @ @ @ @ @ @ @ @ @ q.q.% 7 ^ ^ ^ ^ r.7 7 s.^ ^ ^ ^ ^ ^ ^ ^ ^ ^ ^ % % % % t.4.4.t.% % % u.@ @ @           @ @         ",
"            @ @ @ @ @ @ @ @ @ & & * ~.^ ^ ^ ^ Q % % v.^ ^ ^ ^ ^ ^ ^ ^ ^ ^ w.% % % % % 4.4.x.% % % y.  @ @           @           ",
"            @ @ @ @ @       @ & & * ~.^ ^ ^ ^ Q % % v.^ ^ ^ ^ ^ ^ ^ ^ ^ ^ w.% % % % % 4.4.x.% % % y.                @           ",
"                              z.z.% o ^ ^ ^ ^ A.7 7 B.^ ^ ^ ^ ^ ^ ^ ^ ^ ^ C.% % % % % 4.4.t.% % %                               ",
"                              D.D.y E.^ ^ ^ ^ F.7 7 G.^ ^ ^ ^ ^ ^ ^ ^ ^ ^ H.% % % % t.4.4.t.% % % I.                            ",
"                              J.J.% *.^ ^ ^ ^ ^ ~.~.K.^ ^ ^ ^ ^ ^ ^ ^ ^ ^ L.% % % % % 4.4.t.% M.M.                    . . .     ",
"                              N.N.y O.^ ^ ^ ^ P.7 7 ^ ^ ^ ^ ^ ^ ^ ^ ^ ^ ^ ^ % % % % % 4.4.% % Q.Q.@ @ @ @ . . .     . . . . .   ",
"          . . .               N.N.y O.^ ^ ^ ^ P.7 7 ^ ^ ^ ^ ^ ^ ^ ^ ^ ^ ^ ^ % % % % % 4.4.% % Q.Q.@ @ @ . . . . . . .     . . . ",
"        . . . . .       . .   d d % R.^ ^ ^ ^ S.7 7 T.^ ^ ^ ^ ^ ^ ^ ^ ^ ^ U.% % % % % 4.4.% % /.V.W.. . .     . . .         . . ",
"      . . . . . . . . . . . . X.X.Y.Z.^ ^ ^ ^ `.7 7  +^ ^ ^ ^ ^ ^ ^ ^ ^ ^ ` % % % % t.4.4.7 % y y u.                            ",
"      . . . . . . . . . . . . .+.+Y.++^ ^ ^ ^ _.7 7 @+^ ^ ^ ^ ^ ^ ^ v.v.C % % % % % #+4.4.t.% % %         . .           . . . . ",
"    . . . .       . . . . .   $+$+Y.++^ ^ ^ ^ _.7 7 @+^ ^ ^ ^ ^ ^ ^ v.v.C % % % % % #+4.4.t.% % % +   . . . . .   . . . . . . . ",
". . . . .                     %+%+Y.&+^ ^ ^ *+x.7 7 =+^ ^ ^ ^ ^ ^ -+% % % % % % % % ;+4.4.>+% $ $ ,++ . . . . . . . . . . . . . ",
". . . . .                     '+'+% )+!+!+[ t.~+7 7 t.{+^ ^ ^ ^ ^ 7 % % % % % % % % % ]+]+^+% /+, @ + + . . . . . . . . . . . . ",
". . . .                       (+(+% % % % _+% :+<+<+[+}+|+|+1+7 7 % % % % % % % % % % 2+2+% % 3+3+4+@ + + @ @ . . .     . .     ",
"  . . . . . . . . . .           + 5+% % % % 6+4.4.4.4.7+8+8+C % % % % % % % % % % % % % % % % * * 9+@ @ @ @ @ @ . .             ",
"  . . . . . . . . . . . . . @ + + & % % % % 6+4.4.4.4.7+8+8+C % % % % % % % % % % % % % % % % * y 0+@ @ @ @ @ @ @ @             ",
"  . . . . . @ @ @ @ @ @ @ @ @ @ @ @ 3+% % % 7 a+4.4.4.4.b+b+K % % % % % % % % % % % % % % % % y y     @ @ @ @ @ @ @ @ @         ",
". . @ @ @ @ @ @ @ @ @ @ @ @           | q.* % % c+c+4.4.4.4.d+% % % % % % % % % % % % % % % y e+e+              @ @ @           ",
"                                          6 y % % % t.4.4.4.f+% % % % % % % % % % % % % % g+h+.                                 ",
"                                            L i.% % % ~+i+i+4.% % % % % % % % % % % % j+j+. . . . . .       . . . . . .         ",
"                          @ @ @ @           L i.% % % ~+i+i+4.% % % % % % % % % % % % j+j+. . . . . . . . . . . . . . .         ",
"                        @ @ @ @ @ @             l l y % t.t.4.% % % % % % % y y % k+l+. . . . . . . . . . . . . @ @ @ .         ",
"                @ @ @ @ @ @ @ @ @ @ @ @ @         . j+% % % m+o o % % % % % % % n+o+. . . . . . .             @ @ @ @ @         ",
"                    @ @ @ @       @ @ @ @ @           F % % % p+p+% % % % y q+q+    . . . .           @ @     @ @ @ @ @ @       ",
"                        @           @ @ @ @ @         F % % % p+p+% % % % y q+q+                  @ @ @ @ @ @ @ @ @ @ @ @       ",
"                                                        r+r+% % % % % % i.s+                    @ @ @ @ @ @ @ @ . . . @ @ @ @ @ ",
"@ @ @ @ @ . . .                                         t+t+y % % y 7.7.u+                    . . . . . . . . . . . . . @ @ @ @ ",
". . . . . . . . . . . . .                                   v+i.i.W                         . . . . .     . . . . . . . . . . . ",
". . . . . . . . . . . . . . . . . . . . . .                   Y Y w+                  . . . . . .           . . . . . . . . . . ",
". . . . . . . . . . . . . . . . . .                           Y Y w+                                              . . . . . . . ",
". . . . . . . . . . . .                                                                                             . . .       "};
