/* XPM */
static char * exit_reachable_xpm[] = {
"64 64 21 1",
" 	c #9BB94E",
".	c #79A863",
"+	c #679175",
"@	c #BFBA5B",
"#	c #161C2E",
"$	c #E3C18C",
"%	c #F5EFA9",
"&	c #AF8C79",
"*	c #8A6763",
"=	c #5E474E",
"-	c #5A4646",
";	c #B48355",
">	c #543C56",
",	c #866353",
"'	c #DAB570",
")	c #754867",
"!	c #B65555",
"~	c #C5836E",
"{	c #839D46",
"]	c #668E57",
"^	c #A29E50",
" .   ..                         +++++    +++++      @@@  ..     ",
"                              ++++++++  +++++++    @@@@@ ..     ",
"         @@@@@               +++@@@+++++++@@@@++  @@@@@@@@..    ",
"    @@@@@@@@@@     +++++  +++++@@@@@@++++@@@@@@@+ @@@@@@@@@     ",
" @@@@@@@@@@@@     +++++++++++++@@@@@@@@+@@@@@@@@@@@@@@@@@@@     ",
" @@@@@@@@@@   ++ +++@@+++++@@+++@@@@@@@@@@@@@@@@@@@@@@@@@@@@@   ",
"             ++++++@@@@+++@@@@@+@@@@@@@@@@@@@@@@@@@@@@@@@@@@@   ",
"             ++@@++@@@@@@@@@@@@@@@@@@@@@@@@@    @@@@@..@@@@@@@@@",
"@        @@+++@@@@@@@@@@@##@@#####@.###@@@@      @@@....@@@@@@@@",
"       @@@@@@@@@@@@   @@@#$$#$$$$$##$#..  @       ......@@@@@@  ",
"     @@@@@@@@@@@@@     @#$$$$$$$$$$$$$##       .........        ",
"    @@@   @@@@@@    #####$$$#$$%%%$$$$#####   ...........       ",
"  @@@@     @@@      ##&&#$$#%$$%%$$%$$$&&&#  ......  .....      ",
"                   #&&&&*$$***%%%%$$%$$*&&&##.....     .....    ",
"                ####&&&*$$$$***%%$%$$$$$*&&####...              ",
"    ...         ##&&&&*$$$$$$$%%%$$$$$$*&&&&&&# ..              ",
"   .....        #&&&&&&&*$$$%$$%%$*$$$$*&&$&&&&# ..             ",
"  ......      ##&&&$$&&*$$$$%$%%%*%*$$$*&&$$&&&&#           ... ",
"........    ####&&&$$$&*$$$$$$%%%**$$$$**&$$$&&&#*#        .....",
".........###***#&&$&$$&*$$$$%%$%%%$$$$$$*&$&&$&&#**###    ......",
"..........#****&&&&$$&&&$$$$$$%%%%%$$$$*&&$$&&&&#***##   .......",
"........#*****#&&&&$$&**$$$*%$%%%%%$$$***&&$$&&&&#****#.........",
"........##***#&#&&&$$$**$$$**%%$%%$$$$$&&&&&$&&&##***###++......",
"   ++++.#**&**=&&&&$$$&*$$$$%%%%%%$$$$$$&&$&&$&&#*****#++++     ",
"  ++++++#**&&*=&&$&$&$&*$$$$$%%%%%%*$$$$&&$$&&&&=**&**##++++++++",
"+++@@@+##***&*=&$&&&$&&*$$$$%%%%%%*%*$$$&&$$$$&&=**&&**#++++++++",
"++@@@@@#**&&**=&&$$$$$*$$$$$$%%%%%%*$$$$&&$$&&&&&=*&&&*#++++@@@@",
"@@@@@@@#**&&&=*&&&&$$$**$$$$*%%%%%**$$$**&$$$&&&&=*&&***#++@@@@@",
"@@@@@@###*&&*==&&&&$$$&*%$$***%%%$%$$$$%**$$$&&&===&&**###@@@@@@",
"@@@@@@@#**&**=&&&&&&&&***$$$$%%%%%$$%$$$*$$$&$&&&=*&&**&#@@@@@@@",
"@@@@@@#*#**&*==&&$&&$&&&$%%$$%$%%%$$$$$*&$$$$&&&==**&**#&#@@@@@@",
"@@@  @##**&&**=&&&$&$$&*$%%$%%%%%%%%$%$$#&$$$$&&&=**&***#@@@@  @",
" @    ##***&*#&&&&&$$$&*%%%%%#%%%#%#%%%%#&&$&&&$&=*&&***#@@     ",
"      @#**&&*#&&&#$$$$&#%%#####-####%#%%#&$$$$&&&#*&&*&*#@      ",
"      @#**&&*#&&#$#$%%#%#######--######%%#%%#$$#&#**&***#@      ",
"      ##**&&*#&&&#$%%%%##;;#>>#,,#>##;###%%%%#&&&&#*****#       ",
"      #***&&#&&&$##$%##,,,#'###,,##''#,,##%%%##&&&&#&***#       ",
"      #****##&&$%$$$##>##;;,''#,;#',;;,#>>##%$$$$&##&***# ...   ",
"     #&#****##$$$$#$######;;###;;##;;#########%$&###*****&....  ",
"     ##*****&#$$####;;''';#;;;####;;#;;''';;#%#$$$#*****### ... ",
"    ..#***&&&#%$#-#,,,,;;,,,;;;;;;;;;;;;;;,,,##$$$#&&#***#   ...",
"   ..#***&#&#$$#$#,,,;;;;;;;;;;;;;;;;;;;;;;,,,-#$#$####**##     ",
"   ..##*&&&&####>>>>###,##)))))##)#)#)#,,##>>>>>##&&&&&&###.... ",
"  ....#*#&&&###))))))##,#)!!!~!#!~#!#!#;,,#))))>####&&##&#......",
".....###&&&##-#)!!!!!#,;#!!!~~!#~~)!#!#;;;#))))!#--#&#&&##......",
".....  ######,#)!!!))#;;#!!!!!!#!!)!#!#;;;#!!!!!#-,,####........",
"....    {####,#)!!!))##;#;;'''''''''';#;;;#!!))!#,,,##]].  ..   ",
" .......]]#,,;#)!!!!!##;##,;;;;;;;;;;,#;;;#!!!!)#,;,,#^].       ",
" .......]##;,;#)!!!)!##;####,;;;;;;;;,#,;,#!!!!!)#;;,#^@@       ",
" .....^^^##;;;#)!!!)))####################!!!)))>#;,;#^^@@@     ",
"..@@@@^^^##;;;############>))))###################;,;#{^@@      ",
"       {{#;;;;#;''''''''''''''''''''''''''''''';##;,;#{{        ",
"       {{#;;;;#,;;;;;;;;;;;;;;;;;;;;;;;;;;;;;;;;,#;#;#]]...     ",
"       {{#,;;;#,;;;##;;;;;;;;;;;;;;;;;;;;;;##,;;,#;#;#]]]].     ",
"       {{{##,####;;;##;;;;;;#######;;;;;;;##;;########]^@@.     ",
"       {^^^^^^^^^^^^^{{{{]]]]]]]]]]]{{{{{]]]]]]]{{{{{{^^^@@     ",
"         {^^^^{{{^@^^^{{{{{{{{{{ {  {{{{{]]]]{  {{^^{{^^^@@@    ",
"            @     @@@@@                         @@@@@@@@@@@@    ",
"                                               @@@@@@@@...@@@@@@",
"@@@@@...                                      .............@@@@@",
".............                                .....  ............",
"......................                    ......     ...........",
"..................                                      ........",
"............                                             ...    "};
