/* XPM */
static char * exit_unreachable_xpm[] = {
"64 64 12 1",
" 	c #9BB94E",
".	c #79A863",
"+	c #679175",
"@	c #BFBA5B",
"#	c #161C2E",
"$	c #B48355",
"%	c #DAB570",
"&	c #866353",
"*	c #5A4646",
"=	c #839D46",
"-	c #668E57",
";	c #A29E50",
" .   ..                         +++++    +++++      @@@  ..     ",
"                              ++++++++  +++++++    @@@@@ ..     ",
"         @@@@@               +++@@@+++++++@@@@++  @@@@@@@@..    ",
"    @@@@@@@@@@     +++++  +++++@@@@@@++++@@@@@@@+ @@@@@@@@@     ",
" @@@@@@@@@@@@     +++++++++++++@@@@@@@@+@@@@@@@@@@@@@@@@@@@     ",
" @@@@@@@@@@   ++ +++@@+++++@@+++@@@@@@@@@@@@@@@@@@@@@@@@@@@@@   ",
"             ++++++@@@@+++@@@@@+@@@@@@@@@@@@@@@@@@@@@@@@@@@@@   ",
"             ++@@++@@@@@@@@@@@@@@@@@@@@@@@@@    @@@@@..@@@@@@@@@",
"@        @@+++@@@@@@@@@@@@@@@@@@@@@....@@@@      @@@....@@@@@@@@",
"       @@@@@@@@@@@@   @@@@@    @@@......  @       ......@@@@@@  ",
"     @@@@@@@@@@@@@     @@@   ...........       .........        ",
"    @@@   @@@@@@       @@@  ...........       ...........       ",
"  @@@@     @@@           @  ...............  ......  .....      ",
"                          ........................     .....    ",
"                    ..........   .................              ",
"    ...                ......     ..   .......  ..              ",
"   .....                  ...     .      ....    ..             ",
"  ......            @@                                      ... ",
"........           @@@@    @@@@                            .....",
"...........      @@@@@@@@@@@@@@@@        ....             ......",
"................@@@@@@@@@@@@@@....  ...........  ....    .......",
"..............     @@@@@@@@@@...................................",
"...........         @@@@@@ ...   .....................++++......",
"   ++++...      @@@@@@@@@            ................++++++     ",
"  +++++++.    @@@@@@@@@@@       .................+++.+++++++++++",
"+++@@@++++   @@@@@@@@@@@          ..............++++++++++++++++",
"++@@@@@++++@@@     @@@@@            ...........+++++@@@@++++@@@@",
"@@@@@@@@@@@@        @@@@@ @@            .......+++@@@@@@@++@@@@@",
"@@@@@@@@@@@@          @@@@@@@           .....++++@@@@@@@@+@@@@@@",
"@@@@@@@@@@@@ @@@       @@@   @           @@@@@@+@@@@@@@@@@@@@@@@",
"@@@@@@@@@@@@##########$$$$#########################@@@@@@@@@@@@@",
"@@@  @@@@@@@#%##$$%%%##########&&&&##########$$###%@@   @@@@@  @",
" @    @@@@@@#%%*&&&&&&###&#$$&&&&&&&&&&&&&&&$&&&#%##     @@     ",
"      @@@@@@#%##*&&&&&&&&&&&&&&&&&&&&&&&&&&&&&**#%$#     @      ",
"      @@@@@=#%##&&&&$$$$$$$$$$$$$$$$$$$$$$$&&&&&#$%#     @      ",
"           =#%&&$$$$$$$$$$$$$$$$$$$$$$$$$$$$$$$$##%#=           ",
"           ##$&&$$$$$$$$$$$$$$$$$$$$$$$$$$$$$$$$##%#=           ",
"          =#%#&&$$$$$$$$$$$$$$$$$$$$$$$$$$$$$$$&*&%#=     ...   ",
"          =#%##&&&&&$$$$$$$$$$$$$$$$$$$$$$$$$$$&*&%#-..  .....  ",
"     ...  =#%##$$$$$$$$$$$$$$$$$$$$$$$$$$$$$$$$$&&%##.....  ... ",
"    .....==#%##$$$$$$$$$$$$$$$%$$$$$$$$$$$$$$$$$&&%%#=...    ...",
"   ......--#%##$$$$$$%%%%%%%$$$$$$$$$%%%%%$$$$$$&*$%#=          ",
"   .......#$%&*&$$$$$$$$$$$$$&&&&&&$$$$$$$$$$$$$&*#%#-     .... ",
"  ....   -#%%&&$$$$$$$$$$$$$$$$$$$$$$$$$$$$$$$$$$&#%#-. ........",
".....    =#%%&&$$$$$$$$$$$$$$$$$$$$$$$$$$$$$$$$$$##%#--.........",
".....    =#%%&*&$$$$$$$$$$$#%%#$$$$$$$$$$$$$$$$&&##$##-.........",
"....    ==#%$&#&$&&&$$$$$$#$&#%%#$$$$$$$$$$&&&$$&#&&%#-..  ..   ",
" ........-#%#&&$$$$$$###$##&$$$##$$$$$$$$$$$$$$$$&&%%#;..       ",
" .......-##%#&&$$$$$##$#%#&$$$##$$$$$$$$$$$$$$$$$&&%%#;@@       ",
" .....@@;#%$#&####&&#$$&$##&$$%##&&&&###$$$$$$&&##&%%#;@@@@     ",
"..@@@@@@;#$###&$$$$#$$$&$%#$$%#$&&&&&$$$$$$$$$$$&###$#=@@@      ",
"        =##$%%%%%%#$&$&$%#&$##$$$%%%%%%%%%%%%%%%%%%%##==        ",
"        =#&$$$$$$##$$$$##&&#%#&&$$$$$$$$$$$$$$$$$$$$$#-....     ",
"        =##&&&$$$#$$$$###&$%#&&$$$$$$$$$$$$##&$$$$&&##-....     ",
"        ==##&#$$#$$$$#%#&$&########$$$$$$$##$$##$#####-;@@.     ",
"        ;@;;;;;#$$$&$##&$%%#--------= ===-------======;@@@@     ",
"          @@@;##&%$$#%#&#%#======        ....    =@;  @@@@@@    ",
"            @ #$%$$$%###=###                    @@@@@@@@@@@@    ",
"             #$#$$#%#===                       @@@@@@@@...@@@@@@",
"@@@@@...      ##$$%%==                        .............@@@@@",
"............. ==###=                         .....  ............",
"......................                    ......     ...........",
"..................                                      ........",
"............                                             ...    "};
