/* XPM */
static char * player_xpm[] = {
"64 64 133 2",
"  	c #9BB94E",
". 	c #79A863",
"+ 	c #679175",
"@ 	c #BFBA5B",
"# 	c #010101",
"$ 	c #060B04",
"% 	c #030603",
"& 	c #131D0E",
"* 	c #74A15F",
"= 	c #FF004D",
"- 	c #638B51",
"; 	c #EE0048",
"> 	c #466338",
", 	c #050102",
"' 	c #090D03",
") 	c #757678",
"! 	c #C2C3C7",
"~ 	c #360010",
"{ 	c #23000B",
"] 	c #657A31",
"^ 	c #616163",
"/ 	c #545456",
"( 	c #080103",
"_ 	c #3D3D3E",
": 	c #C1C2C6",
"< 	c #040001",
"[ 	c #293210",
"} 	c #5E5E60",
"| 	c #070707",
"1 	c #650321",
"2 	c #2E2C11",
"3 	c #FFF1E8",
"4 	c #FFF0E7",
"5 	c #12120B",
"6 	c #FCEFE7",
"7 	c #C2C3C6",
"8 	c #4A4B4C",
"9 	c #5B7F49",
"0 	c #6A672F",
"a 	c #8D8941",
"b 	c #5B5828",
"c 	c #C1C3C6",
"d 	c #C1C3C7",
"e 	c #020202",
"f 	c #1A1908",
"g 	c #050505",
"h 	c #131906",
"i 	c #020303",
"j 	c #B0B1B4",
"k 	c #050702",
"l 	c #0F100C",
"m 	c #4E4E50",
"n 	c #141414",
"o 	c #090909",
"p 	c #B9BABE",
"q 	c #393716",
"r 	c #363738",
"s 	c #A4A4A8",
"t 	c #030303",
"u 	c #060606",
"v 	c #949045",
"w 	c #485821",
"x 	c #1D1E1E",
"y 	c #98B64D",
"z 	c #1E260A",
"A 	c #738A38",
"B 	c #77A662",
"C 	c #0B1307",
"D 	c #141218",
"E 	c #19191A",
"F 	c #070609",
"G 	c #161C07",
"H 	c #8A8B8D",
"I 	c #867A9E",
"J 	c #83769C",
"K 	c #6E6383",
"L 	c #6D6282",
"M 	c #685D7C",
"N 	c #19171E",
"O 	c #020102",
"P 	c #1B1820",
"Q 	c #2C4123",
"R 	c #1A1A1A",
"S 	c #877A9E",
"T 	c #84779D",
"U 	c #83769D",
"V 	c #8B7FA1",
"W 	c #AEACBA",
"X 	c #595A5C",
"Y 	c #474749",
"Z 	c #1D1C09",
"` 	c #1F2E17",
" .	c #C0C1C5",
"..	c #0F0F10",
"+.	c #ACADB0",
"@.	c #1B1C1C",
"#.	c #536427",
"$.	c #0D0D0D",
"%.	c #999A9D",
"&.	c #AAABAF",
"*.	c #5B5C5E",
"=.	c #344016",
"-.	c #060803",
";.	c #9C9DA0",
">.	c #79816D",
",.	c #737476",
"'.	c #030503",
").	c #9D9DA1",
"!.	c #313C14",
"~.	c #414143",
"{.	c #1E2D23",
"].	c #AEAFB3",
"^.	c #3F3F40",
"/.	c #25372B",
"(.	c #5C5928",
"_.	c #B3AE55",
":.	c #131313",
"<.	c #979347",
"[.	c #88843F",
"}.	c #50725B",
"|.	c #131205",
"1.	c #BBBCC0",
"2.	c #929396",
"3.	c #080702",
"4.	c #0E0D04",
"5.	c #3A3917",
"6.	c #B7B357",
"7.	c #ACA751",
"8.	c #3F3D19",
"9.	c #313013",
"0.	c #7C7838",
"a.	c #172311",
"b.	c #5F854D",
"  .       . .                                                   + + + + +         + + + + +             @ @ @     . .           ",
"                                                            + + + + + + + +     + + + + + + +         @ @ @ @ @   . .           ",
"                  @ @ @ @ @                               + + + @ @ @ + + + + + + + @ @ @ @ + +     @ @ @ @ @ @ @ @ . .         ",
"        @ @ @ @ @ @ @ @ @ @           + + + + +     + + + + + @ @ @ @ @ @ + + + + @ @ @ @ @ @ @ +   @ @ @ @ @ @ @ @ @           ",
"  @ @ @ @ @ @ @ @ @ @ @ @           + + + + + + + + + + + + + @ @ @ @ @ @ @ @ + @ @ @ @ @ @ @ @ @ @ @ @ @ @ @ @ @ @ @           ",
"  @ @ @ @ @ @ @ @ @ @       + +   + + + @ @ + + + + + @ @ + + + @ @ @ @ @ @ @ @ @ @ @ @ @ @ @ @ @ @ @ @ @ @ @ @ @ @ @ @ @       ",
"                          + + + + + + @ @ @ @ + + + @ @ @ @ @ + @ @ @ @ @ @ @ @ @ @ @ @ @ @ @ @ @ @ @ @ @ @ @ @ @ @ @ @ @       ",
"                          + + @ @ + + @ @ @ @ @ @ @ @ @ @ @ @ @ @ @ @ @ @ @ @ @ @ @ @ @         @ @ @ @ @ . . @ @ @ @ @ @ @ @ @ ",
"@                 @ @ + + + @ @ @ @ @ @ @ @ @ @ @ @ @ @ @ @ @ @ @ @ @ . . . . @ @ @ @             @ @ @ . . . . @ @ @ @ @ @ @ @ ",
"              @ @ @ @ @ @ @ @ @ @ @ @       @ @ @ @ @         @ @ @ . . . . . .     @               . . . . . . @ @ @ @ @ @     ",
"          @ @ @ @ @ @ @ @ @ @ @ @ @           @ @ @       . . . . . . . . . . .               . . . . . . . . .                 ",
"        @ @ @       @ @ @ @ @ @               @ @ @     . . . . . . . . . . .               . . . . . . . . . . .               ",
"    @ @ @ @           @ @ @                       @     . . # $ % . . & $ . . . . . .     . . . . . .     . . . . .             ",
"                                                    . . . * % = % . # = # . . . . . . . . . . . . .           . . . . .         ",
"                                        . . . . . . . . . - # = # % ; = # . . . . . . . . . . . . .                             ",
"        . . .                                 . . . . > # # # = , # = # # '   . . . . . . .     . .                             ",
"      . . . . .                                     # # ) ! # = ~ { = # # # #     . . . .         . .                           ",
"    . . . . . .                         @ @     ] # ^ ! ! ! / ( # = # ! ! _ # #                                         . . .   ",
". . . . . . . .                       @ @ @ @   # : ! ! ! ! ! # < # ! ! ! !   # [                                     . . . . . ",
". . . . . . . . . . .             @ @ @ @ @ @ # } : ! ! ! ! ! | 1 ! ! ! ! ! ! # # . . . .                           . . . . . . ",
". . . . . . . . . . . . . . . . @ @ @ @ @ @ 2 # : : ! ! ! ! ! ! ! ! ! 3 3 4 ! ! # # . . . . .     . . . .         . . . . . . . ",
". . . . . . . . . . . . . .           @ @ @ # 5 : : ! ! ! ! ! ! ! ! ! 3 3 3 6 ! # # . . . . . . . . . . . . . . . . . . . . . . ",
". . . . . . . . . . .                   @ @ # 7 : ! ! ! ! ! ! ! ! ! ! ! 3 3 3 ! 8 # . . . . . . . . . . . . + + + + . . . . . . ",
"      + + + + . . .             @ @ @ @ @ @ # : : ! ! ! ! ! ! ! ! ! ! ! ! 3 3 ! . # 9 . . . . . . . . . . + + + + + +           ",
"    + + + + + + + .         @ @ @ @ @ @ @ 0 # : : ! ! ! ! ! ! ! ! ! ! ! ! ! ! ! ! # $ . . . . . . + + + . + + + + + + + + + + + ",
"+ + + @ @ @ + + + +       @ @ @ @ @ @ @ @ a # : : ! ! ! ! ! ! ! ! ! ! ! ! ! ! 7 ! % # . . . . . + + + + + + + + + + + + + + + + ",
"+ + @ @ @ @ @ + + + + @ @ @           @ @ b # : c ! ! ! ! ! ! ! ! ! ! ! ! ! ! d ! e # . . . . + + + + + @ @ @ @ + + + + @ @ @ @ ",
"@ @ @ @ @ @ @ @ @ @ @ @                 @ f # : ! ! ! ! ! ! ! ! ! ! ! ! ! ! ! ! ! e # . . . . + + + @ @ @ @ @ @ @ + + @ @ @ @ @ ",
"@ @ @ @ @ @ @ @ @ @ @ @                   ' # : ! ! ! ! ! ! ! ! ! ! ! ! ! ! ! ! ! g # . . + + + + @ @ @ @ @ @ @ @ + @ @ @ @ @ @ ",
"@ @ @ @ @ @ @ @ @ @ @ @   @ @ @           h i : ! ! ! ! ! ! ! ! ! ! ! ! ! ! ! ! ! j # @ @ @ @ + @ @ @ @ @ @ @ @ @ @ @ @ @ @ @ @ ",
"@ @ @ @ @ @ @ @ @ @ @ @ @ @ @ @ @         k l : ! ! ! ! e # m n ! o p # # # ! ! ! ^ #   @ @ @ @ @ @ @ @ @ @ @ @ @ @ @ @ @ @ @ @ ",
"@ @ @     @ @ @ @ @ @ @ @ @ @ @ @       @ q r : ! ! ! ! ! s g # # # # e ! ! ! ! ! t #     @ @ @ @ @ @ @ @       @ @ @ @ @     @ ",
"  @         @ @ @ @ @ @ @ @ @ @ @     @ @ f u 7 : ! ! ! ! ! ! ! # ! ! ! ! ! ! ! ! u '             @ @ @           @ @           ",
"            @ @ @ @ @ @ @ @ @ @ @ @ @ @ @ v | : : d ! ! ! ! ! ! # ! ! ! ! ! ! ! ! # w               @ @           @             ",
"            @ @ @ @ @       @ @ @ @ @ @ @ @ # x : : ! ! ! ! ! ! # ! ! ! ! ! ! d ! #                               @             ",
"                                            y # # : : ! ! ! ! ! # ! ! ! ! ! : ! i z                                             ",
"                                                # # # : ! ! ! ! # ! ! ! ! : g # # A     @ @ @                                   ",
"                                            B % C D E # # # # # # # # # # # # F G   @ @ @ @ @ @                     . . .       ",
"                                          . $ H # I J # J J K J L M e N K O J P # # @ @ @ @ @ @ @ @ @ @ . . .     . . . . .     ",
"          . . .                       Q # # # : : # t R S T J J J U T V W X # Y ! # Z @ @ @ @ @ @ @ @ . . . . . . .     . . .   ",
"        . . . . .       . .       . ` g : :  .: : ..# : ! ! ! ! ! ! ! ! +.# e ! ! @.t # # @ @ . . . . .     . . .         . . . ",
"      . . . . . . . . . . . .       # : : : : : u e # : ! ! ! ! ! ! ! ! : : # ! ! ! ! ! # #.                                    ",
"      . . . . . . . . . . . . . . . # : : : : $.# ' %.: ! ! ! ! ! ! ! ! &.# *.! ! ! ! ! # =.            . .           . . . .   ",
"    . . . .       . . . . .         # -.: : : : #   # # # # # # # # # # # # ;.! ! ! ! >.#   + + +   . . . . .   . . . . . . . . ",
". . . . .                           #.# : : : ,.# + '.: ! ! ! # ! ! ! : ).# # ! ! ! ! # # + + + + + . . . . . . . . . . . . . . ",
". . . . .                             !.# # ~.# + '.{.: : 7 ! # ].! ! 7 ^.# # # e '.# # + + + @ @ + + . . . . . . . . . . . . . ",
". . . .                               + + /.(._.# : : : : : : # : : : : : : :.# <.[.}.+ + + @ @ @ @ + + @ @ . . .     . .       ",
"  . . . . . . . . . .           + + + + @ @ @ |.e p : 1.2.: : # e u 3.u e # # # @ @ @ + + @ @ @ @ @ @ @ @ @ @ . .               ",
"  . . . . . . . . . . . . . @ + + @ @ @ @ @ @ @ 4.# 3.# # # # 5.6.7.8.9.0.a.b.. @ @ @ @ + @ @     @ @ @ @ @ @ @ @               ",
"  . . . . . @ @ @ @ @ @ @ @ @ @ @ @ @ @ @ @ @ @ . . . @ @ @ @ @ @ @ @ @ . . . . . @ @ @ @ @         @ @ @ @ @ @ @ @ @           ",
". . @ @ @ @ @ @ @ @ @ @ @ @             @ @ . . . . . . . @ @ . . . . . . . . . . . . .                       @ @ @             ",
"                                                    . . . . . . . . . . . . . . . . . . . . .                                   ",
"                                                            . . . . . . . . . . . . . . . . . . . .       . . . . . .           ",
"                          @ @ @ @                                   . . . . . . . . . . . . . . . . . . . . . . . . .           ",
"                        @ @ @ @ @ @                         . . . . . . .       . . . . . . . . . . . . . . . @ @ @ .           ",
"                @ @ @ @ @ @ @ @ @ @ @ @ @         . . . . . . . . . . .           . . . . . . .             @ @ @ @ @           ",
"                    @ @ @ @       @ @ @ @ @                                       . . . .           @ @     @ @ @ @ @ @         ",
"                        @           @ @ @ @ @                                                   @ @ @ @ @ @ @ @ @ @ @ @         ",
"                                                                                              @ @ @ @ @ @ @ @ . . . @ @ @ @ @ @ ",
"@ @ @ @ @ . . .                                                                             . . . . . . . . . . . . . @ @ @ @ @ ",
". . . . . . . . . . . . .                                                                 . . . . .     . . . . . . . . . . . . ",
". . . . . . . . . . . . . . . . . . . . . .                                         . . . . . .           . . . . . . . . . . . ",
". . . . . . . . . . . . . . . . . .                                                                             . . . . . . . . ",
". . . . . . . . . . . .                                                                                           . . .         "};
