/* XPM */
static char * player_up_xpm[] = {
"64 64 124 2",
"  	c #9BB94E",
". 	c #79A863",
"+ 	c #679175",
"@ 	c #BFBA5B",
"# 	c #5B804A",
"$ 	c #010101",
"% 	c #880A2A",
"& 	c #456238",
"* 	c #689054",
"= 	c #FE004D",
"- 	c #29000C",
"; 	c #2A3E21",
"> 	c #77A561",
", 	c #510018",
"' 	c #C8003D",
") 	c #8C8D90",
"! 	c #020101",
"~ 	c #8CA746",
"{ 	c #242D0D",
"] 	c #BEBFC3",
"^ 	c #C2C3C7",
"/ 	c #050203",
"( 	c #0F0105",
"_ 	c #A7A8AC",
": 	c #080808",
"< 	c #42501D",
"[ 	c #7A7B7E",
"} 	c #BE003A",
"| 	c #070707",
"1 	c #151516",
"2 	c #87A143",
"3 	c #929396",
"4 	c #D28FA6",
"5 	c #D87998",
"6 	c #030303",
"7 	c #C2C4C8",
"8 	c #FEF0E7",
"9 	c #FCEFE6",
"0 	c #232A11",
"a 	c #050702",
"b 	c #C1C2C6",
"c 	c #F9EDE4",
"d 	c #C3C4C7",
"e 	c #C1C2C7",
"f 	c #656668",
"g 	c #4F6F3F",
"h 	c #C1C3C7",
"i 	c #425E35",
"j 	c #060606",
"k 	c #454647",
"l 	c #5F722D",
"m 	c #C3C3C7",
"n 	c #95B24B",
"o 	c #667A31",
"p 	c #C2C3C6",
"q 	c #918D44",
"r 	c #0C0E09",
"s 	c #020202",
"t 	c #7F8082",
"u 	c #4B4A3E",
"v 	c #3C3C3E",
"w 	c #0E0D04",
"x 	c #536427",
"y 	c #7A7A7D",
"z 	c #C2C2C7",
"A 	c #203018",
"B 	c #B5BDB6",
"C 	c #0B1307",
"D 	c #83769C",
"E 	c #020102",
"F 	c #7B6F92",
"G 	c #060B04",
"H 	c #0E0E0E",
"I 	c #BABBBF",
"J 	c #070708",
"K 	c #A9A5B5",
"L 	c #040404",
"M 	c #080702",
"N 	c #817E3B",
"O 	c #699255",
"P 	c #B7B8BC",
"Q 	c #1A1A1B",
"R 	c #C1C1C6",
"S 	c #897D9F",
"T 	c #84779C",
"U 	c #84779D",
"V 	c #84789E",
"W 	c #867A9F",
"X 	c #A49EB3",
"Y 	c #6F7072",
"Z 	c #4B4E4C",
"` 	c #091007",
" .	c #727375",
"..	c #050505",
"+.	c #3B3C3D",
"@.	c #5C814B",
"#.	c #4B4B4C",
"$.	c #090D03",
"%.	c #88898C",
"&.	c #828385",
"*.	c #C0C1C5",
"=.	c #272728",
"-.	c #131906",
";.	c #414F1D",
">.	c #1B1B1B",
",.	c #2C2C2D",
"'.	c #090909",
").	c #898A8C",
"!.	c #464648",
"~.	c #0A0A0A",
"{.	c #546527",
"].	c #6A7F33",
"^.	c #638C71",
"/.	c #0C0C0C",
"(.	c #1D1D1E",
"_.	c #0F0F10",
":.	c #889A90",
"<.	c #27260E",
"[.	c #131314",
"}.	c #030503",
"|.	c #2E2E2F",
"1.	c #ACA751",
"2.	c #4B481F",
"3.	c #1E2D17",
"  .       . .                                                   + + + + +         + + + + +             @ @ @     . .           ",
"                                                            + + + + + + + +     + + + + + + +         @ @ @ @ @   . .           ",
"                  @ @ @ @ @                               + + + @ @ @ + + + + + + + @ @ @ @ + +     @ @ @ @ @ @ @ @ . .         ",
"        @ @ @ @ @ @ @ @ @ @           + + + + +     + + + + + @ @ @ @ @ @ + + + + @ @ @ @ @ @ @ +   @ @ @ @ @ @ @ @ @           ",
"  @ @ @ @ @ @ @ @ @ @ @ @           + + + + + + + + + + + + + @ @ @ @ @ @ @ @ + @ @ @ @ @ @ @ @ @ @ @ @ @ @ @ @ @ @ @           ",
"  @ @ @ @ @ @ @ @ @ @       + +   + + + @ @ + + + + + @ @ + + + @ @ @ @ @ @ @ @ @ @ @ @ @ @ @ @ @ @ @ @ @ @ @ @ @ @ @ @ @       ",
"                          + + + + + + @ @ @ @ + + + @ @ @ @ @ + @ @ @ @ @ @ @ @ @ @ @ @ @ @ @ @ @ @ @ @ @ @ @ @ @ @ @ @ @       ",
"                          + + @ @ + + @ @ @ @ @ @ @ @ @ @ @ @ @ @ @ @ @ @ @ @ @ @ @ @ @         @ @ @ @ @ . . @ @ @ @ @ @ @ @ @ ",
"@                 @ @ + + + @ @ @ @ @ @ @ @ @ @ @ @ @ @ @ @ @ @ @ @ @ . . . . @ @ @ @             @ @ @ . . . . @ @ @ @ @ @ @ @ ",
"              @ @ @ @ @ @ @ @ @ @ @ @       @ @ @ @ @         @ @ @ . . . . . .     @               . . . . . . @ @ @ @ @ @     ",
"          @ @ @ @ @ @ @ @ @ @ @ @ @           @ @ @       . . . . . . . . . . .               . . . . . . . . .                 ",
"        @ @ @       @ @ @ @ @ @               @ @ @     . . . # . . . . . . .               . . . . . . . . . . .               ",
"    @ @ @ @           @ @ @                       @     . $ % $ & * $ $ . . . . . . .     . . . . . .     . . . . .             ",
"                                                    . . . $ = - ; $ = $ . . . . . . . . . . . . . .           . . . . .         ",
"                                        . . . . . . . . > $ , = $ ' = $ . . . . . . . . . . . . . .                             ",
"        . . .                                 . . . . $ $ ) ! = $ = = $ ~     . . . . . . .     . .                             ",
"      . . . . .                                   { $ ] ^ ^ / = ( = $ _ : $       . . . .         . .                           ",
"    . . . . . .                         @ @     < $ ^ ^ ^ ^ [ } = $ | ^ ^ 1 $                                           . . .   ",
". . . . . . . .                       @ @ @ @ 2 $ 3 ^ ^ ^ ^ ^ 4 5 ^ ^ ^ ^ ^ ^ $                                       . . . . . ",
". . . . . . . . . . .             @ @ @ @ @ @ $ 6 ^ ^ ^ ^ 7 ^ ^ ^ ^ ^ 8 9 ^ ^ 0 a . . . .                           . . . . . . ",
". . . . . . . . . . . . . . . . @ @ @ @ @ @ @ $ ^ ^ ^ ^ b ^ ^ ^ ^ ^ ^ 8 8 ^ ^ ^ $ . . . . . .     . . . .         . . . . . . . ",
". . . . . . . . . . . . . .           @ @ @ $ $ ^ ^ ^ ^ ^ ^ ^ ^ ^ ^ ^ c 8 8 d ^ $ $ . . . . . . . . . . . . . . . . . . . . . . ",
". . . . . . . . . . .                   @ @ $ ) ^ ^ e ^ ^ ^ ^ ^ ^ ^ ^ ^ 8 8 8 ^ f $ . . . . . . . . . . . . + + + + . . . . . . ",
"      + + + + . . .             @ @ @ @ @ @ $ ^ ^ ^ ^ ^ ^ ^ ^ ^ ^ ^ ^ ^ ^ 8 8 ^ ^ $ g . . . . . . . . . . + + + + + +           ",
"    + + + + + + + .         @ @ @ @ @ @ @ @ $ ^ ^ h ^ ^ ^ ^ ^ ^ ^ ^ ^ ^ ^ ^ ^ ^ ^ $ i . . . . . . + + + . + + + + + + + + + + + ",
"+ + + @ @ @ + + + +       @ @ @ @ @ @ @ @ @ $ ^ ^ ^ ^ ^ ^ ^ ^ ^ ^ ^ ^ ^ ^ ^ ^ ^ ^ 6 $ . . . . . + + + + + + + + + + + + + + + + ",
"+ + @ @ @ @ @ + + + + @ @ @           @ @ @ $ ^ ^ ^ ^ ^ ^ ^ ^ ^ ^ ^ ^ ^ ^ ^ ^ ^ ^ j $ . . . . + + + + + @ @ @ @ + + + + @ @ @ @ ",
"@ @ @ @ @ @ @ @ @ @ @ @                 @ @ $ ^ ^ ^ ^ ^ ^ ^ ^ ^ ^ ^ ^ ^ ^ ^ ^ ^ ^ k $ . . . . + + + @ @ @ @ @ @ @ + + @ @ @ @ @ ",
"@ @ @ @ @ @ @ @ @ @ @ @                   l $ ^ ^ ^ ^ ^ ^ ^ ^ ^ ^ ^ ^ ^ ^ ^ ^ ^ m ^ $ . . + + + + @ @ @ @ @ @ @ @ + @ @ @ @ @ @ ",
"@ @ @ @ @ @ @ @ @ @ @ @   @ @ @           n $ ^ ^ ^ ^ ^ ^ ^ ^ ^ ^ ^ ^ ^ ^ ^ ^ ^ ^ ^ $ @ @ @ @ + @ @ @ @ @ @ @ @ @ @ @ @ @ @ @ @ ",
"@ @ @ @ @ @ @ @ @ @ @ @ @ @ @ @ @         o $ ^ ^ ^ ^ ^ ^ ^ ^ ^ ^ ^ ^ ^ ^ ^ ^ ^ p ^ $   @ @ @ @ @ @ @ @ @ @ @ @ @ @ @ @ @ @ @ @ ",
"@ @ @     @ @ @ @ @ @ @ @ @ @ @ @       @ q r ^ ^ ^ ^ ^ ^ ^ ^ ^ ^ ^ ^ ^ ^ ^ ^ ^ ^ ^ $     @ @ @ @ @ @ @ @       @ @ @ @ @     @ ",
"  @         @ @ @ @ @ @ @ @ @ @ @     @ @ @ s ^ ^ ^ ^ ^ ^ ^ ^ ^ ^ ^ ^ ^ ^ ^ ^ ^ ^ t $             @ @ @           @ @           ",
"            @ @ @ @ @ @ @ @ @ @ @ @ @ @ @ @ u ^ ^ ^ ^ ^ ^ ^ ^ ^ ^ ^ ^ ^ ^ ^ ^ ^ ^ v $               @ @           @             ",
"            @ @ @ @ @       @ @ @ @ @ @ @ @ w s ^ ^ ^ ^ ^ ^ ^ ^ ^ ^ ^ ^ ^ ^ ^ ^ ^ s $                             @             ",
"                                              x $ y ^ ^ ^ ^ ^ ^ ^ ^ ^ z ^ ^ ^ ^ s $                                             ",
"                                                $ A $ $ B ^ ^ ^ ^ ^ ^ ^ ^ ^ ^ $ $       @ @ @                                   ",
"                                            . C s D E F $ $ $ $ $ $ $ $ $ $ 6 a     @ @ @ @ @ @                     . . .       ",
"                                          . G $ 6 H I D D D D D D D D D D J K L M N @ @ @ @ @ @ @ @ @ @ . . .     . . . . .     ",
"          . . .                       . . O s ^ P s Q ^ ^ R S T U V W X ^ s j Y $ Z @ @ @ @ @ @ @ @ @ . . . . . . .     . . .   ",
"        . . . . .       . .       . . . `  .^ ^ ^ ^ $ ^ ^ ^ ^ ^ ^ ^ ^ ^ ^ L $ ..^ +.@.. @ @ @ . . . . .     . . .         . . . ",
"      . . . . . . . . . . . .           $ ^ ^ ^ ^ ..#.^ ^ ^ ^ ^ ^ ^ ^ ^ ^ $ 6 ^ ^ ^ $ $                                         ",
"      . . . . . . . . . . . . . . .   $.%.^ ^ ^ ^ &.$ *.^ ^ ^ ^ ^ ^ ^ ^ ^ s =.^ ^ ^ ^ $ -.              . .           . . . .   ",
"    . . . .       . . . . .           ;.6 ^ ^ ^ ^ >.$ ,.$ $ $ $ $ $ $ $ $ $ s ^ ^ ^ ^ '.a   + + +   . . . . .   . . . . . . . . ",
". . . . .                               $ ).^ ^ ^ $ s ^ ^ ^ ^ !.~.^ ] ^ ^ $ 6 ^ ^ ^ ^ $ {.+ + + + + . . . . . . . . . . . . . . ",
". . . . .                               ].$ $ $ $ ^.s ^ ^ ^ ^ /.(.^ ^ ^ ^ $ $ _.^ ^ :.$ + + + @ @ + + . . . . . . . . . . . . . ",
". . . .                               + + + @ <.$ L ^ ^ ^ ^ ^ s 6 ^ ^ ^ ^ [.$ $ $ $ }.+ + + @ @ @ @ + + @ @ . . .     . .       ",
"  . . . . . . . . . .           + + + + @ @ @ $ |.^ ^ ^ ^ ^ ^ s $ ^ ^ ^ ^ ^ ^ M @ @ @ + + @ @ @ @ @ @ @ @ @ @ . .               ",
"  . . . . . . . . . . . . . @ + + @ @ @ @ @ @ @ <.1.2.$ $ $ $ $ $ $ $ $ $ $ $ 3.@ @ @ @ + @ @     @ @ @ @ @ @ @ @               ",
"  . . . . . @ @ @ @ @ @ @ @ @ @ @ @ @ @ @ @ @ @ . . . @ @ @ @ @ @ @ @ @ . . . . . @ @ @ @ @         @ @ @ @ @ @ @ @ @           ",
". . @ @ @ @ @ @ @ @ @ @ @ @             @ @ . . . . . . . @ @ . . . . . . . . . . . . .                       @ @ @             ",
"                                                    . . . . . . . . . . . . . . . . . . . . .                                   ",
"                                                            . . . . . . . . . . . . . . . . . . . .       . . . . . .           ",
"                          @ @ @ @                                   . . . . . . . . . . . . . . . . . . . . . . . . .           ",
"                        @ @ @ @ @ @                         . . . . . . .       . . . . . . . . . . . . . . . @ @ @ .           ",
"                @ @ @ @ @ @ @ @ @ @ @ @ @         . . . . . . . . . . .           . . . . . . .             @ @ @ @ @           ",
"                    @ @ @ @       @ @ @ @ @                                       . . . .           @ @     @ @ @ @ @ @         ",
"                        @           @ @ @ @ @                                                   @ @ @ @ @ @ @ @ @ @ @ @         ",
"                                                                                              @ @ @ @ @ @ @ @ . . . @ @ @ @ @ @ ",
"@ @ @ @ @ . . .                                                                             . . . . . . . . . . . . . @ @ @ @ @ ",
". . . . . . . . . . . . .                                                                 . . . . .     . . . . . . . . . . . . ",
". . . . . . . . . . . . . . . . . . . . . .                                         . . . . . .           . . . . . . . . . . . ",
". . . . . . . . . . . . . . . . . .                                                                             . . . . . . . . ",
". . . . . . . . . . . .                                                                                           . . .         "};
