/* XPM */
static char * player_right_xpm[] = {
"64 64 114 2",
"  	c #9BB94E",
". 	c #79A863",
"+ 	c #679175",
"@ 	c #BFBA5B",
"# 	c #010101",
"$ 	c #42401B",
"% 	c #5B7F49",
"& 	c #38512D",
"* 	c #FE004D",
"= 	c #0D1204",
"- 	c #160F0A",
"; 	c #638B51",
"> 	c #030603",
", 	c #131906",
"' 	c #456237",
") 	c #080103",
"! 	c #31000F",
"~ 	c #030102",
"{ 	c #510018",
"] 	c #0C0104",
"^ 	c #C1C2C6",
"/ 	c #757974",
"( 	c #9AB84D",
"_ 	c #526326",
": 	c #040404",
"< 	c #C2C3C7",
"[ 	c #4C4C4E",
"} 	c #160007",
"| 	c #090103",
"1 	c #E64E7E",
"2 	c #121212",
"3 	c #C2C3C6",
"4 	c #C1C3C6",
"5 	c #F4E8E2",
"6 	c #C1C2C7",
"7 	c #FEF0E7",
"8 	c #F0E5DF",
"9 	c #9B9C9F",
"0 	c #C2C2C6",
"a 	c #E1DBD8",
"b 	c #D1CFCF",
"c 	c #B3B5B7",
"d 	c #0A0A0A",
"e 	c #DFD9D6",
"f 	c #5F854D",
"g 	c #507040",
"h 	c #0E0D04",
"i 	c #0C0B0B",
"j 	c #6D9759",
"k 	c #1D1C09",
"l 	c #020202",
"m 	c #23341B",
"n 	c #2E2C11",
"o 	c #C2C4C7",
"p 	c #090909",
"q 	c #293D20",
"r 	c #111605",
"s 	c #2F2E24",
"t 	c #060606",
"u 	c #0B1307",
"v 	c #050702",
"w 	c #030303",
"x 	c #6F7072",
"y 	c #090D03",
"z 	c #3A3A3B",
"A 	c #2E2E2F",
"B 	c #0C0C0D",
"C 	c #9C9DA0",
"D 	c #2A2B2B",
"E 	c #BCC1BA",
"F 	c #222A0D",
"G 	c #BAC1B4",
"H 	c #080809",
"I 	c #333F16",
"J 	c #0F0F10",
"K 	c #1A2109",
"L 	c #819A40",
"M 	c #4A5922",
"N 	c #76A461",
"O 	c #0F190B",
"P 	c #09090A",
"Q 	c #020102",
"R 	c #0D1609",
"S 	c #6D6282",
"T 	c #736889",
"U 	c #110F14",
"V 	c #100E13",
"W 	c #74688A",
"X 	c #83769C",
"Y 	c #3E3849",
"Z 	c #25371D",
"` 	c #968DAA",
" .	c #C1C3C7",
"..	c #C3C3C6",
"+.	c #131314",
"@.	c #363637",
"#.	c #5C5D5F",
"$.	c #6A6A6D",
"%.	c #C1C2C8",
"&.	c #4B6B56",
"*.	c #929396",
"=.	c #030503",
"-.	c #A9AAAD",
";.	c #B2AD54",
">.	c #0B140E",
",.	c #131205",
"'.	c #B1AC54",
").	c #AEAFB3",
"!.	c #B4B5B9",
"~.	c #555325",
"{.	c #8E8E91",
"].	c #545456",
"^.	c #5C5928",
"/.	c #060B04",
"  .       . .                                                   + + + + +         + + + + +             @ @ @     . .           ",
"                                                            + + + + + + + +     + + + + + + +         @ @ @ @ @   . .           ",
"                  @ @ @ @ @                               + + + @ @ @ + + + + + + + @ @ @ @ + +     @ @ @ @ @ @ @ @ . .         ",
"        @ @ @ @ @ @ @ @ @ @           + + + + +     + + + + + @ @ @ @ @ @ + + + + @ @ @ @ @ @ @ +   @ @ @ @ @ @ @ @ @           ",
"  @ @ @ @ @ @ @ @ @ @ @ @           + + + + + + + + + + + + + @ @ @ @ @ @ @ @ + @ @ @ @ @ @ @ @ @ @ @ @ @ @ @ @ @ @ @           ",
"  @ @ @ @ @ @ @ @ @ @       + +   + + + @ @ + + + + + @ @ + + + @ @ @ @ @ @ @ @ @ @ @ @ @ @ @ @ @ @ @ @ @ @ @ @ @ @ @ @ @       ",
"                          + + + + + + @ @ @ @ + + + @ @ @ @ @ + @ @ @ @ @ @ @ @ @ @ @ @ @ @ @ @ @ @ @ @ @ @ @ @ @ @ @ @ @       ",
"                          + + @ @ + + @ @ @ @ @ @ @ @ @ @ @ @ @ @ @ @ @ @ @ @ @ @ @ @ @         @ @ @ @ @ . . @ @ @ @ @ @ @ @ @ ",
"@                 @ @ + + + @ @ @ @ @ @ @ @ @ @ @ @ @ @ @ @ @ @ @ @ @ . . . . @ @ @ @             @ @ @ . . . . @ @ @ @ @ @ @ @ ",
"              @ @ @ @ @ @ @ @ @ @ @ @       @ @ @ @ @         @ @ @ . . . . . .     @               . . . . . . @ @ @ @ @ @     ",
"          @ @ @ @ @ @ @ @ @ @ @ @ @           @ @ @       . . . . . . . . . . .               . . . . . . . . .                 ",
"        @ @ @       @ @ @ @ @ @               @ @ @     . . # # . . . . . . .               . . . . . . . . . . .               ",
"    @ @ @ @           @ @ @                       $ # # % & # * # . . . . . . . . . .     . . . . . .     . . . . .             ",
"                                                  = - * # ; > * # . . . . . . . . . . . . . . . . .           . . . . .         ",
"                                        . . . . . . # * * # , * # . . . . . . . . . . . . . . . . .                             ",
"        . . .                                 . . . ' ) * ! = * ~ # # #       . . . . . . .     . .                             ",
"      . . . . .                                     # # { * # * ] ^ ^ / # # (     . . . .         . .                           ",
"    . . . . . .                         @ @     _ # : < [ # } * | < < < ^ ^ # #                                         . . .   ",
". . . . . . . .                       @ @ @ @   # # < < < < # 1 2 3 4 5 6 ^ ^ # #                                     . . . . . ",
". . . . . . . . . . .             @ @ @ @ @ @ # # < < < < < < < < < < 7 7 8 ^ ^ # . . . .                           . . . . . . ",
". . . . . . . . . . . . . . . . @ @ @ @ @ @ @ # 9 < 0 < < < < < < < < a 7 7 b ^ c > . . . . .     . . . .         . . . . . . . ",
". . . . . . . . . . . . . .           @ @ @ @ # < < < < < < < < < < < < 7 7 7 ^ ^ # . . . . . . . . . . . . . . . . . . . . . . ",
". . . . . . . . . . .                   @ @ # d < ^ < < < < < < < < < < < e 7 ^ ^ # . . . . . . . . . . . . + + + + . . . . . . ",
"      + + + + . . .             @ @ @ @ @ @ # < < < < < < < < < < < < < < < < 3 ^ # f . . . . . . . . . . + + + + + +           ",
"    + + + + + + + .         @ @ @ @ @ @ @ @ # < < < < < < < < < < < < < < < < < ^ # g . . . . . . + + + . + + + + + + + + + + + ",
"+ + + @ @ @ + + + +       @ @ @ @ @ @ @ @ h # < < < < < < < < < < < < < < < < < ^ i j . . . . . + + + + + + + + + + + + + + + + ",
"+ + @ @ @ @ @ + + + + @ @ @           @ @ k # < < < < < < < < < < < < < < < < < ^ l m . . . . + + + + + @ @ @ @ + + + + @ @ @ @ ",
"@ @ @ @ @ @ @ @ @ @ @ @                 @ n # < < < < < < < < < < < < < < < < o ^ p q . . . . + + + @ @ @ @ @ @ @ + + @ @ @ @ @ ",
"@ @ @ @ @ @ @ @ @ @ @ @                   r s < < < < < < < < < < < < < < < < < ^ t u . . + + + + @ @ @ @ @ @ @ @ + @ @ @ @ @ @ ",
"@ @ @ @ @ @ @ @ @ @ @ @   @ @ @           v v < < < < < < < < < < < < < < < < < # # k @ @ @ @ + @ @ @ @ @ @ @ @ @ @ @ @ @ @ @ @ ",
"@ @ @ @ @ @ @ @ @ @ @ @ @ @ @ @ @         v : < < < < < < < < < < < < < < # # # w x y   @ @ @ @ @ @ @ @ @ @ @ @ @ @ @ @ @ @ @ @ ",
"@ @ @     @ @ @ @ @ @ @ @ @ @ @ @       @ # z < < < < < < < < < < < < < A B < < l C =     @ @ @ @ @ @ @ @       @ @ @ @ @     @ ",
"  @         @ @ @ @ @ @ @ @ @ @ @     @ @ # t < < < < < < < < < < < < < < < < ^ D E F             @ @ @           @ @           ",
"            @ @ @ @ @ @ @ @ @ @ @ @ @ @ @ # 2 < < < < < < < < < < < < < < < < ^ t G r               @ @           @             ",
"            @ @ @ @ @       @ @ @ @ @ @ @ @ # < < < < < < < < < < < < < < 4 ^ ^ H v                               @             ",
"                                            I # J ^ < < < < < < < < < < ^ ^ ^ K #                                               ",
"                                              L # # l ^ ^ ^ < < < < < < ^ # # M         @ @ @                                   ",
"                                            . . . N O # # # P l w l # # # Q .       @ @ @ @ @ @                     . . .       ",
"                                          . . . . . . . R S T # U V W X X Y Z @ @ @ @ @ @ @ @ @ @ @ @ @ . . .     . . . . .     ",
"          . . .                       . . . . . .   = # # # # # l X X ` ^ ^ # . . . @ @ @ @ @ @ @ @ @ . . . . . . .     . . .   ",
"        . . . . .       . .       . . . . . . .       # ^ ^ < < w < <  .^ ^ # . . . . . @ @ @ . . . . .     . . .         . . . ",
"      . . . . . . . . . . . .                       # ^ < ..< < +.< < 0 ^ @.#                                                   ",
"      . . . . . . . . . . . . . . .               r #.^ ^ < < < # < < < ^ $.#                           . .           . . . .   ",
"    . . . .       . . . . .                       # ^ ^ ^ < < < # %.^ ^ ^ # &.+ + + +       + + +   . . . . .   . . . . . . . . ",
". . . . .                                   + + + # *.^ ^ ^ ^ ^ # # # l # # @ + + + + +   + + + + + . . . . . . . . . . . . . . ",
". . . . .                                 + + + + =.# ^ ^ ^ ^ ^ # ^ -.# ;.@ @ @ @ + + + + + + @ @ + + . . . . . . . . . . . . . ",
". . . .                               + + + @ @ @ @ >.# # # # # ^ ^ ^ # ,.@ @ @ @ @ + + + + @ @ @ @ + + @ @ . . .     . .       ",
"  . . . . . . . . . .           + + + + @ @ @ @ @ @ @ @ '.# ).^ ^ ^ ^ ^ !.l ~.@ @ @ @ + + @ @ @ @ @ @ @ @ @ @ . .               ",
"  . . . . . . . . . . . . . @ + + @ @ @ @ @ @ @ @ @ @ @ @ # {.^ ^ ^ ^ ^ ^ ].# . @ @ @ @ + @ @     @ @ @ @ @ @ @ @               ",
"  . . . . . @ @ @ @ @ @ @ @ @ @ @ @ @ @ @ @ @ @ . . . @ @ ^.# # # # # # # /.. . . @ @ @ @ @         @ @ @ @ @ @ @ @ @           ",
". . @ @ @ @ @ @ @ @ @ @ @ @             @ @ . . . . . . . @ @ . . . . . . . . . . . . .                       @ @ @             ",
"                                                    . . . . . . . . . . . . . . . . . . . . .                                   ",
"                                                            . . . . . . . . . . . . . . . . . . . .       . . . . . .           ",
"                          @ @ @ @                                   . . . . . . . . . . . . . . . . . . . . . . . . .           ",
"                        @ @ @ @ @ @                         . . . . . . .       . . . . . . . . . . . . . . . @ @ @ .           ",
"                @ @ @ @ @ @ @ @ @ @ @ @ @         . . . . . . . . . . .           . . . . . . .             @ @ @ @ @           ",
"                    @ @ @ @       @ @ @ @ @                                       . . . .           @ @     @ @ @ @ @ @         ",
"                        @           @ @ @ @ @                                                   @ @ @ @ @ @ @ @ @ @ @ @         ",
"                                                                                              @ @ @ @ @ @ @ @ . . . @ @ @ @ @ @ ",
"@ @ @ @ @ . . .                                                                             . . . . . . . . . . . . . @ @ @ @ @ ",
". . . . . . . . . . . . .                                                                 . . . . .     . . . . . . . . . . . . ",
". . . . . . . . . . . . . . . . . . . . . .                                         . . . . . .           . . . . . . . . . . . ",
". . . . . . . . . . . . . . . . . .                                                                             . . . . . . . . ",
". . . . . . . . . . . .                                                                                           . . .         "};
