/* XPM */
static char * player_left_xpm[] = {
"64 64 110 2",
"  	c #9BB94E",
". 	c #79A863",
"+ 	c #679175",
"@ 	c #BFBA5B",
"# 	c #010101",
"$ 	c #FE004D",
"% 	c #38512D",
"& 	c #5B7F49",
"* 	c #27391E",
"= 	c #020101",
"- 	c #638B51",
"; 	c #17150D",
"> 	c #080F06",
", 	c #060103",
"' 	c #020202",
") 	c #040102",
"! 	c #31000F",
"~ 	c #080103",
"{ 	c #5A6C2A",
"] 	c #9AB84D",
"^ 	c #77777A",
"/ 	c #C1C2C6",
"( 	c #09090A",
"_ 	c #510018",
": 	c #C2C2C7",
"< 	c #C2C3C7",
"[ 	c #070707",
"} 	c #160007",
"| 	c #4C4C4E",
"1 	c #040404",
"2 	c #526326",
"3 	c #C2C2C6",
"4 	c #121212",
"5 	c #080702",
"6 	c #B3B4B7",
"7 	c #F5E9E2",
"8 	c #FFF1E8",
"9 	c #FAEDE5",
"0 	c #9A9B9E",
"a 	c #FDF0E7",
"b 	c #FEF0E7",
"c 	c #C1C3C7",
"d 	c #0A0A0A",
"e 	c #989447",
"f 	c #F1E6E1",
"g 	c #807D3B",
"h 	c #ACA751",
"i 	c #11100C",
"j 	c #060B04",
"k 	c #3C3A18",
"l 	c #0F190B",
"m 	c #46441D",
"n 	c #12120A",
"o 	c #1A2713",
"p 	c #111605",
"q 	c #060606",
"r 	c #304327",
"s 	c #0B1307",
"t 	c #161C07",
"u 	c #090D03",
"v 	c #6C7E46",
"w 	c #030303",
"x 	c #050702",
"y 	c #131205",
"z 	c #939C85",
"A 	c #0C0C0D",
"B 	c #2E2E2F",
"C 	c #3A3A3A",
"D 	c #2C2A10",
"E 	c #C2C3C5",
"F 	c #2A2B2B",
"G 	c #0C1006",
"H 	c #171606",
"I 	c #C1C1B0",
"J 	c #303B14",
"K 	c #090909",
"L 	c #0E1108",
"M 	c #2B3412",
"N 	c #333F16",
"O 	c #819A40",
"P 	c #020102",
"Q 	c #76A461",
"R 	c #25371D",
"S 	c #3F4146",
"T 	c #83769C",
"U 	c #74688A",
"V 	c #100E13",
"W 	c #110F14",
"X 	c #736889",
"Y 	c #6D6282",
"Z 	c #0D1609",
"` 	c #B8B7C1",
" .	c #9A91AC",
"..	c #363637",
"+.	c #131314",
"@.	c #6A6B6D",
"#.	c #5C5D5F",
"$.	c #728938",
"%.	c #929396",
"&.	c #5F876C",
"*.	c #AAAAAE",
"=.	c #060C08",
"-.	c #1D1C09",
";.	c #555325",
">.	c #B5B6BA",
",.	c #AFB0B3",
"'.	c #B1AC54",
").	c #575755",
"!.	c #8E8F92",
"~.	c #5C5928",
"  .       . .                                                   + + + + +         + + + + +             @ @ @     . .           ",
"                                                            + + + + + + + +     + + + + + + +         @ @ @ @ @   . .           ",
"                  @ @ @ @ @                               + + + @ @ @ + + + + + + + @ @ @ @ + +     @ @ @ @ @ @ @ @ . .         ",
"        @ @ @ @ @ @ @ @ @ @           + + + + +     + + + + + @ @ @ @ @ @ + + + + @ @ @ @ @ @ @ +   @ @ @ @ @ @ @ @ @           ",
"  @ @ @ @ @ @ @ @ @ @ @ @           + + + + + + + + + + + + + @ @ @ @ @ @ @ @ + @ @ @ @ @ @ @ @ @ @ @ @ @ @ @ @ @ @ @           ",
"  @ @ @ @ @ @ @ @ @ @       + +   + + + @ @ + + + + + @ @ + + + @ @ @ @ @ @ @ @ @ @ @ @ @ @ @ @ @ @ @ @ @ @ @ @ @ @ @ @ @       ",
"                          + + + + + + @ @ @ @ + + + @ @ @ @ @ + @ @ @ @ @ @ @ @ @ @ @ @ @ @ @ @ @ @ @ @ @ @ @ @ @ @ @ @ @       ",
"                          + + @ @ + + @ @ @ @ @ @ @ @ @ @ @ @ @ @ @ @ @ @ @ @ @ @ @ @ @         @ @ @ @ @ . . @ @ @ @ @ @ @ @ @ ",
"@                 @ @ + + + @ @ @ @ @ @ @ @ @ @ @ @ @ @ @ @ @ @ @ @ @ . . . . @ @ @ @             @ @ @ . . . . @ @ @ @ @ @ @ @ ",
"              @ @ @ @ @ @ @ @ @ @ @ @       @ @ @ @ @         @ @ @ . . . . . .     @               . . . . . . @ @ @ @ @ @     ",
"          @ @ @ @ @ @ @ @ @ @ @ @ @           @ @ @       . . . . . . . . . . .               . . . . . . . . .                 ",
"        @ @ @       @ @ @ @ @ @               @ @ @     . . . . # # . . . . .               . . . . . . . . . . .               ",
"    @ @ @ @           @ @ @                       @     . . . # $ # % & # # * . . . .     . . . . . .     . . . . .             ",
"                                                    . . . . . # $ = - # $ ; > . . . . . . . . . . .           . . . . .         ",
"                                        . . . . . . . . . .   # $ , # $ $ # . . . . . . . . . . . .                             ",
"        . . .                                 . . . . . # # # ' $ ) ! $ ~ {   . . . . . . .     . .                             ",
"      . . . . .                                   ] # # ^ / / ( $ # $ _ # #       . . . .         . .                           ",
"    . . . . . .                         @ @     # ' / / / : < [ $ } # | / 1 # 2                                         . . .   ",
". . . . . . . .                       @ @ @ @ # # / 3 < < < < 4 $ # < < < / # #                                       . . . . . ",
". . . . . . . . . . .             @ @ @ @ @ @ # / < < < < < < < < < < < < < / # # . . . .                           . . . . . . ",
". . . . . . . . . . . . . . . . @ @ @ @ @ @ 5 6 / < < < < < < < < < 7 8 9 < / 0 # . . . . . .     . . . .         . . . . . . . ",
". . . . . . . . . . . . . .           @ @ @ # / < < < < < < < < < < < 8 8 a < / # . . . . . . . . . . . . . . . . . . . . . . . ",
". . . . . . . . . . .                   @ @ # / < < < < < < < < < < < b 8 8 < c d # . . . . . . . . . . . . + + + + . . . . . . ",
"      + + + + . . .             @ @ @ @ @ e # / < < < < < < < < < < < < 8 8 f < / # . . . . . . . . . . . + + + + + +           ",
"    + + + + + + + .         @ @ @ @ @ @ @ g # / < < < < < < < < < < < < < < < < / # . . . . . . . + + + . + + + + + + + + + + + ",
"+ + + @ @ @ + + + +       @ @ @ @ @ @ @ @ h i / < < < < < < < < < < < < < < < < / # j . . . . . + + + + + + + + + + + + + + + + ",
"+ + @ @ @ @ @ + + + + @ @ @           @ @ k ' / < < < < < < < < < < < < < < < < / # l . . . . + + + + + @ @ @ @ + + + + @ @ @ @ ",
"@ @ @ @ @ @ @ @ @ @ @ @                 @ m n / < < < < < < < < < < < < < < < < / # o . . . . + + + @ @ @ @ @ @ @ + + @ @ @ @ @ ",
"@ @ @ @ @ @ @ @ @ @ @ @                   p q / < < < < < < < < < < < < < < < < / r s . . + + + + @ @ @ @ @ @ @ @ + @ @ @ @ @ @ ",
"@ @ @ @ @ @ @ @ @ @ @ @   @ @ @           t # # < < < < < < < < < < < < < < < < / ' 5 @ @ @ @ + @ @ @ @ @ @ @ @ @ @ @ @ @ @ @ @ ",
"@ @ @ @ @ @ @ @ @ @ @ @ @ @ @ @ @         u v w # # # < < < < < < < < < < < < < / 1 x   @ @ @ @ @ @ @ @ @ @ @ @ @ @ @ @ @ @ @ @ ",
"@ @ @     @ @ @ @ @ @ @ @ @ @ @ @       @ y z ' < < A B < < < < < < < < < < < < / C #     @ @ @ @ @ @ @ @       @ @ @ @ @     @ ",
"  @         @ @ @ @ @ @ @ @ @ @ @     @ @ D E F < < < < < < < < < < < < < < < < / G #             @ @ @           @ @           ",
"            @ @ @ @ @ @ @ @ @ @ @ @ @ @ @ H I q / < < < < < < < < < < < < < < < / J #               @ @           @             ",
"            @ @ @ @ @       @ @ @ @ @ @ @ @ 5 K / / < < < < < < < < < < < < < / / #                               @             ",
"                                              # L / / < < < < < < < < < / / / M # N                                             ",
"                                                % # # / < < < < < / / / / ' # # O       @ @ @                                   ",
"                                            . . . . P # # # ' w ' ( # # # l Q       @ @ @ @ @ @                     . . .       ",
"                                          . . . . R S T T U V W # X Y Z . . . @ @ @ @ @ @ @ @ @ @ @ @ @ . . .     . . . . .     ",
"          . . .                       . . . . . . # < `  .T T ' # # # # # > . . . . @ @ @ @ @ @ @ @ @ . . . . . . .     . . .   ",
"        . . . . .       . .       . . . . . . .   # < < < < < w < < / / # . . . . . . . @ @ @ . . . . .     . . .         . . . ",
"      . . . . . . . . . . . .                     # ..< < < < +.< < < / / #                                                     ",
"      . . . . . . . . . . . . . . .               # @.< < < < # < < < < / #.p                           . .           . . . .   ",
"    . . . .       . . . . .                       $.# < < / < # < < < : / / # + + + +       + + +   . . . . .   . . . . . . . . ",
". . . . .                                   + + + + # # ' # # # < < c / / %.# + + + + +   + + + + + . . . . . . . . . . . . . . ",
". . . . .                                 + + + + + + &.# *.< # / / / / / # 5 @ @ + + + + + + @ @ + + . . . . . . . . . . . . . ",
". . . .                               + + + @ @ @ @ + =.# < < < # # # # # -.@ @ @ @ + + + + @ @ @ @ + + @ @ . . .     . .       ",
"  . . . . . . . . . .           + + + + @ @ @ @ @ ;.' >.< < < < < ,.# '.@ @ @ @ @ @ @ + + @ @ @ @ @ @ @ @ @ @ . .               ",
"  . . . . . . . . . . . . . @ + + @ @ @ @ @ @ @ @ # ).< < < < < < !.# @ @ . . . @ @ @ @ + @ @     @ @ @ @ @ @ @ @               ",
"  . . . . . @ @ @ @ @ @ @ @ @ @ @ @ @ @ @ @ @ @ . . j # # # # # # # ~.@ . . . . . @ @ @ @ @         @ @ @ @ @ @ @ @ @           ",
". . @ @ @ @ @ @ @ @ @ @ @ @             @ @ . . . . . . . @ @ . . . . . . . . . . . . .                       @ @ @             ",
"                                                    . . . . . . . . . . . . . . . . . . . . .                                   ",
"                                                            . . . . . . . . . . . . . . . . . . . .       . . . . . .           ",
"                          @ @ @ @                                   . . . . . . . . . . . . . . . . . . . . . . . . .           ",
"                        @ @ @ @ @ @                         . . . . . . .       . . . . . . . . . . . . . . . @ @ @ .           ",
"                @ @ @ @ @ @ @ @ @ @ @ @ @         . . . . . . . . . . .           . . . . . . .             @ @ @ @ @           ",
"                    @ @ @ @       @ @ @ @ @                                       . . . .           @ @     @ @ @ @ @ @         ",
"                        @           @ @ @ @ @                                                   @ @ @ @ @ @ @ @ @ @ @ @         ",
"                                                                                              @ @ @ @ @ @ @ @ . . . @ @ @ @ @ @ ",
"@ @ @ @ @ . . .                                                                             . . . . . . . . . . . . . @ @ @ @ @ ",
". . . . . . . . . . . . .                                                                 . . . . .     . . . . . . . . . . . . ",
". . . . . . . . . . . . . . . . . . . . . .                                         . . . . . .           . . . . . . . . . . . ",
". . . . . . . . . . . . . . . . . .                                                                             . . . . . . . . ",
". . . . . . . . . . . .                                                                                           . . .         "};
