/* XPM */
static char * sign_xpm[] = {
"64 64 309 2",
"  	c #9BB94E",
". 	c #79A863",
"+ 	c #679175",
"@ 	c #BFBA5B",
"# 	c #557961",
"$ 	c #3B5544",
"% 	c #1A281E",
"& 	c #5C5928",
"* 	c #9D994A",
"= 	c #3C5745",
"- 	c #020101",
"; 	c #010101",
"> 	c #201F0A",
", 	c #5E846B",
"' 	c #AFAA53",
") 	c #040806",
"! 	c #1D1712",
"~ 	c #D6A584",
"{ 	c #D1A181",
"] 	c #B38A6E",
"^ 	c #090702",
"/ 	c #23220C",
"( 	c #15100D",
"_ 	c #100A04",
": 	c #080702",
"< 	c #C98C6D",
"[ 	c #D5A383",
"} 	c #020202",
"| 	c #060403",
"1 	c #43401C",
"2 	c #A54F34",
"3 	c #AB5236",
"4 	c #17110E",
"5 	c #4D3C30",
"6 	c #0D0B09",
"7 	c #401F14",
"8 	c #091006",
"9 	c #050302",
"0 	c #0F0705",
"a 	c #0F0E06",
"b 	c #77A662",
"c 	c #90452E",
"d 	c #0B0504",
"e 	c #341910",
"f 	c #28130D",
"g 	c #060303",
"h 	c #0A0504",
"i 	c #75A360",
"j 	c #7B3B27",
"k 	c #101208",
"l 	c #75A25F",
"m 	c #6A9356",
"n 	c #334A28",
"o 	c #182512",
"p 	c #030603",
"q 	c #050702",
"r 	c #090D03",
"s 	c #4F6025",
"t 	c #719D5C",
"u 	c #172311",
"v 	c #8D442D",
"w 	c #5D2D1D",
"x 	c #507141",
"y 	c #61874F",
"z 	c #111B0C",
"A 	c #1E2D17",
"B 	c #060B04",
"C 	c #131D0E",
"D 	c #9AB74D",
"E 	c #768D3A",
"F 	c #384518",
"G 	c #7D953E",
"H 	c #4A5A22",
"I 	c #030303",
"J 	c #040403",
"K 	c #506125",
"L 	c #0A0806",
"M 	c #30251E",
"N 	c #352921",
"O 	c #261D17",
"P 	c #AF866C",
"Q 	c #D5A584",
"R 	c #6D9859",
"S 	c #25371D",
"T 	c #070F05",
"U 	c #020201",
"V 	c #030202",
"W 	c #050403",
"X 	c #604A3C",
"Y 	c #0D0A08",
"Z 	c #080605",
"` 	c #896954",
" .	c #473329",
"..	c #1A0D08",
"+.	c #190F0B",
"@.	c #B16B4E",
"#.	c #C39779",
"$.	c #D6A585",
"%.	c #8B9F49",
"&.	c #2E4224",
"*.	c #673625",
"=.	c #624A3B",
"-.	c #331910",
";.	c #7B5C4A",
">.	c #7B5F4C",
",.	c #513F32",
"'.	c #D4A383",
").	c #BF8D70",
"!.	c #D19D7D",
"~.	c #836451",
"{.	c #D6A484",
"].	c #CB9D7D",
"^.	c #A98B67",
"/.	c #B48B6F",
"(.	c #D0A181",
"_.	c #BC9274",
":.	c #211A15",
"<.	c #0E0B09",
"[.	c #120E0B",
"}.	c #0A0807",
"|.	c #070504",
"1.	c #070505",
"2.	c #31261F",
"3.	c #D5A484",
"4.	c #121D0D",
"5.	c #C89A7B",
"6.	c #846651",
"7.	c #CB9D7E",
"8.	c #130F0C",
"9.	c #060302",
"0.	c #0B0503",
"a.	c #040302",
"b.	c #040202",
"c.	c #A65035",
"d.	c #AA5236",
"e.	c #502719",
"f.	c #372B22",
"g.	c #372A21",
"h.	c #18130F",
"i.	c #5D4739",
"j.	c #0B0907",
"k.	c #060504",
"l.	c #040303",
"m.	c #130906",
"n.	c #190C08",
"o.	c #110805",
"p.	c #3D1D13",
"q.	c #A34E33",
"r.	c #2A140D",
"s.	c #7D3C27",
"t.	c #9E4C32",
"u.	c #793A26",
"v.	c #351A11",
"w.	c #150A07",
"x.	c #090504",
"y.	c #080403",
"z.	c #140A06",
"A.	c #200F0A",
"B.	c #381B12",
"C.	c #1E0E0A",
"D.	c #23110B",
"E.	c #0E0704",
"F.	c #361A11",
"G.	c #3E1E14",
"H.	c #384E2C",
"I.	c #592B1C",
"J.	c #1D0E09",
"K.	c #331810",
"L.	c #683221",
"M.	c #5D8168",
"N.	c #A24E33",
"O.	c #67876D",
"P.	c #4E6D57",
"Q.	c #51735C",
"R.	c #A34E34",
"S.	c #AB5338",
"T.	c #AB5438",
"U.	c #587C64",
"V.	c #AC553A",
"W.	c #9E9A4A",
"X.	c #5F2E1E",
"Y.	c #A19D4C",
"Z.	c #60742E",
"`.	c #100805",
" +	c #88422B",
".+	c #404E1D",
"++	c #89A444",
"@+	c #313013",
"#+	c #0D0604",
"$+	c #833F2A",
"%+	c #86A043",
"&+	c #693221",
"*+	c #9F4D33",
"=+	c #536427",
"-+	c #96B34B",
";+	c #3E4B1B",
">+	c #89422B",
",+	c #AB5337",
"'+	c #27130C",
")+	c #849E41",
"!+	c #9AB84E",
"~+	c #39512D",
"{+	c #A44F34",
"]+	c #AB5237",
"^+	c #729F5D",
"/+	c #763926",
"(+	c #2C130B",
"_+	c #803D29",
":+	c #713724",
"<+	c #260E08",
"[+	c #130503",
"}+	c #060201",
"|+	c #14200F",
"1+	c #5E2D1E",
"2+	c #29140D",
"3+	c #51271A",
"4+	c #181F08",
"5+	c #446036",
"6+	c #111605",
"7+	c #0D1609",
"8+	c #23341B",
"9+	c #78903B",
"0+	c #78A762",
"a+	c #1E260A",
"b+	c #1A2713",
"c+	c #232C0D",
"d+	c #030503",
"e+	c #171606",
"f+	c #807D3B",
"g+	c #293D30",
"h+	c #45624F",
"i+	c #496853",
"j+	c #2A3E30",
"k+	c #4B6A55",
"l+	c #658F73",
"m+	c #595727",
"n+	c #25240D",
"o+	c #44421C",
"p+	c #24361C",
"q+	c #070403",
"r+	c #2A3E21",
"s+	c #733724",
"t+	c #38512D",
"u+	c #2D160E",
"v+	c #39522E",
"w+	c #21100A",
"x+	c #4D6D3E",
"y+	c #26381E",
"z+	c #867A40",
"A+	c #2E160F",
"B+	c #A75035",
"C+	c #8A432C",
"D+	c #000A06",
"E+	c #1E8951",
"F+	c #2B8C51",
"G+	c #5B9A5C",
"H+	c #34D656",
"I+	c #6B3322",
"J+	c #00160D",
"K+	c #008751",
"L+	c #248B53",
"M+	c #2FDB57",
"N+	c #85472C",
"O+	c #689B48",
"P+	c #30DB58",
"Q+	c #00150C",
"R+	c #208A53",
"S+	c #78A863",
"T+	c #0A0503",
"U+	c #56AF4D",
"V+	c #33D757",
"W+	c #2FDC58",
"X+	c #005633",
"Y+	c #5E9A50",
"Z+	c #556628",
"`+	c #2FDB58",
" @	c #060A05",
".@	c #00693F",
"+@	c #2DDA57",
"@@	c #25CA56",
"#@	c #158851",
"$@	c #21100B",
"%@	c #228D39",
"&@	c #56291B",
"*@	c #010201",
"=@	c #2FDC57",
"-@	c #29D156",
";@	c #1C8951",
">@	c #7F983F",
",@	c #00140C",
"'@	c #018951",
")@	c #2E8C51",
"!@	c #81AA4F",
"~@	c #1B140D",
"{@	c #00170E",
"]@	c #004A2C",
"^@	c #2AD357",
"/@	c #108851",
"(@	c #20C156",
"_@	c #2FDD58",
":@	c #20BA56",
"<@	c #348D52",
"[@	c #7EC752",
"}@	c #46D857",
"|@	c #6BC553",
"1@	c #72B352",
"2@	c #238A51",
"3@	c #7FC852",
"4@	c #77CB52",
"  .       . .                                                   + + + + +         + + + + +             @ @ @     . .           ",
"                                                            + + + + + + + +     + + + + + + +         @ @ @ @ @   . .           ",
"                  @ @ @ @ @                               + + + @ @ @ + + + + + + + @ @ @ @ + +     @ @ @ @ @ @ @ @ . .         ",
"        @ @ @ @ @ @ @ @ @ @           + + + + +     + + # $ % & * @ @ @ @ + + + + @ @ @ @ @ @ @ +   @ @ @ @ @ @ @ @ @           ",
"  @ @ @ @ @ @ @ @ @ @ @ @           + + + + + + + + = - ; ; ; ; ; ; > @ @ @ @ + @ @ @ @ @ @ @ @ @ @ @ @ @ @ @ @ @ @ @           ",
"  @ @ @ @ @ @ @ @ @ @       + +   + + + @ @ + + + , ; ; ; ; ; ; ; ; ; ' @ @ @ @ @ @ @ @ @ @ @ @ @ @ @ @ @ @ @ @ @ @ @ @ @       ",
"                          + + + + + + @ @ @ @ + ) ; ; ; ! ~ { ~ ] ^ ; / @ @ @ @ @ @ @ @ @ @ @ @ @ @ @ @ @ @ @ @ @ @ @ @ @       ",
"                          + + @ @ + + @ @ @ @ @ ; ; ; ( ~ ~ ~ ~ ~ _ ; : @ @ @ @ @ @ @ @         @ @ @ @ @ . . @ @ @ @ @ @ @ @ @ ",
"@                 @ @ + + + @ @ @ @ @ @ @ @ @ @ ; ; < [ ~ ~ ~ } ; | 1 ; . . . @ @ @ @             @ @ @ . . . . @ @ @ @ @ @ @ @ ",
"              @ @ @ @ @ @ @ @ @ @ @ @       @ @ ; ; 2 3 4 5 6 ; ; 7 8 ; . . . .     @               . . . . . . @ @ @ @ @ @     ",
"          @ @ @ @ @ @ @ @ @ @ @ @ @           @ ; ; 3 3 9 - ; - 0 3 a ; b . . .               . . . . . . . . .                 ",
"        @ @ @       @ @ @ @ @ @               @ ; ; c 3 3 d e f 3 3 g ; . . .               . . . . . . . . . . .               ",
"    @ @ @ @           @ @ @                     ; ; 3 3 3 3 3 3 3 3 h ; i . . . . . .     . . . . . .     . . . . .             ",
"                                                ; ; j 3 3 3 3 3 3 3 k ; . . . . . . . . l m . n o p q r r q s t u . . .         ",
"                                        . . . . ; ; v 3 3 3 3 3 3 w ; ; x y z A p B C ; ; ; ; ; ; ; ; ; ; ; ; ; ; ;             ",
"        . . .             D E   E F G H q ; ; ; ; ; ; ; ; ; ; ; ; ; ; ; ; ; ; ; ; ; ; ; ; ; ; ; ; ; ; ; ; ; I J ; ;             ",
"      . . . . .   K s q q ; ; ; ; ; ; ; ; ; ; ; ; ; ; ; ; ; ; ; ; ; ; ; ; ; ; ; ; ; ; ; ; - ; L M N O ~ P ~ Q Q ; ;             ",
"    . . R S T ; ; ; ; ; ; ; ; ; ; ; ; ; ; ; ; ; U ; V W X Y Z `  ...+.@.#.Q Q Q Q Q Q Q Q Q Q Q Q Q Q ~ ~ $.$.Q ; ; %.  . . .   ",
". . . . &.; 8 ; ; ; ; ; - 9 - *.=.-.;.>.,.'.).!.~.{.~ ].~ ~ ~ ~ ~ $.~ ~ Q Q Q Q Q Q ~ Q Q Q Q Q Q Q Q Q Q Q Q Q ; ; ^.. . . . . ",
". . . . ; ; /.Q Q Q Q Q Q ~ $.$.$.$.$.$.$.$.~ ~ ~ ~ ~ ~ Q Q Q Q Q Q Q Q Q Q Q (._.:.<.[.}.|.1.} J J I } } } 2.3.; ; 4.. . . . . ",
". . . . ; ; Q ~ $.$.$.$.$.$.$.$.$.$.~ ~ ~ ~ ~ ~ ~ 5.6.3.7.Q Q 8.} } } } U V U - - - - U 9 9.0.a.9 V b.| - 9.c.d.e.; ; . . . . . ",
". . . . ; ; {.~ $.$.$.$.$.$.$.f.N g.1.h.i.j.a.k.W V V b.U } l.U V a.} - U m.n.o.p.q.3 r.d.3 3 s.3 t.3 d.u.d.d.d.- ; ; . . . . . ",
". . . . ; ; v.w.h x.a.h 9 y.d 0.z.A.0.9 0 0 B.j e.C.D.E.F.G.d.d.d.d.d.d.d.d.d.d.d.3 3 3 3 3 3 3 3 3 3 d.d.d.d.d.; ; H.. . . . . ",
"      + ; ; I.J...n.h 0.K.L.v d.d.d.d.d.d.d.d.d.d.d.d.d.d.d.d.d.d.d.d.d.d.d.d.d.d.3 3 3 3 3 3 3 3 3 d.d.d.d.d.d.; ; M.          ",
"    + + ; ; N.d.d.d.d.d.d.d.d.d.d.d.d.d.d.d.d.d.d.d.d.d.d.3 3 3 3 3 3 3 3 3 3 3 3 3 3 3 3 3 3 3 3 3 3 3 d.d.d.d.; ; O.+ + + + + ",
"+ + + @ ; ; d.d.d.d.d.d.d.3 3 3 3 3 3 d.d.d.d.d.3 3 3 3 3 3 3 3 3 3 3 3 3 3 3 3 3 3 3 3 3 3 3 3 3 3 3 3 3 d.d.d.; ; P.+ + + + + ",
"+ + @ @ ; ; d.d.d.d.d.d.3 3 3 3 3 3 3 3 3 3 3 3 3 3 3 3 3 3 3 3 3 3 3 3 3 3 3 3 3 3 3 3 3 3 3 3 3 3 3 3 3 d.d.d.; ; Q.+ @ @ @ @ ",
"@ @ @ @ ; ; R.d.d.d.d.d.3 3 3 3 3 3 3 3 3 3 3 3 3 3 3 3 3 3 3 3 3 S.T.S.3 3 3 3 3 3 3 3 3 3 3 3 3 3 3 3 3 d.d.d.; ; U.@ @ @ @ @ ",
"@ @ @ @ ; ; A.d.d.d.d.d.3 3 V.3 3 3 3 3 3 3 3 3 3 3 3 3 3 3 3 3 3 3 d.d.d.3 3 3 3 3 3 3 3 3 3 3 3 3 3 3 d.d.d.d.; ; W.@ @ @ @ @ ",
"@ @ @ @ ; ; a.d.d.d.d.3 3 3 3 3 3 3 3 3 3 3 3 3 3 3 3 3 3 3 3 3 3 3 3 3 3 3 3 3 3 3 3 3 3 3 3 3 3 3 3 d.d.d.d.d.; ; @ @ @ @ @ @ ",
"@ @ @ @ ; ; ; X.d.d.d.3 3 3 3 3 3 3 3 3 3 3 3 3 3 3 3 3 3 3 3 3 3 3 3 3 3 3 3 3 3 3 3 3 3 3 3 3 3 3 3 3 d.d.d.d.; ; Y.@ @ @ @ @ ",
"@ @ @   Z.; ; `.d.d.d.d.3 3 3 3 3 3 3 3 3 3 3 3 3 3 3 3 3 3 3 3 3 3 3 3 3 3 3 3 3 3 3 3 3 3 3 3 3 3 3 3 d.d.d.- ; ; @ @ @     @ ",
"  @       q ; ; d.d.d.d.3 3 3 3 3 3 3 3 3 3 3 3 3 3 3 3 3 3 3 3 3 3 3 3 3 3 3 3 3 3 3 3 3 3 3 3 3 3 3 3 d.d. +; ; ; @           ",
"          .+; ; v d.d.3 3 3 3 3 3 3 3 3 3 3 3 3 3 3 3 3 3 3 3 3 3 3 3 3 3 3 3 3 3 3 3 3 3 3 3 3 3 3 3 3 d.d.h ; ; ;             ",
"          ++; ; R.d.d.3 3 3 3 3 3 3 3 3 3 3 3 3 3 3 3 3 3 3 3 3 3 3 3 3 3 3 3 3 3 3 3 3 3 3 3 3 3 3 3 d.d.d.; ; ; @+            ",
"            ; ; #+$+d.d.3 3 3 3 3 3 3 3 d.d.3 3 3 3 3 3 3 3 3 3 3 3 3 3 3 3 3 3 3 3 3 3 3 3 3 3 3 3 3 d.d.d.; ; ; %+            ",
"            ; ; ; &+d.d.d.3 3 3 3 3 3 3 3 3 3 3 3 3 3 3 d.3 3 3 3 3 3 3 3 3 3 3 3 3 3 3 3 3 3 3 3 3 3 d.d.*+; ; =+-+            ",
"            ;+; ; >+d.d.d.d.3 3 3 3 3 3 3 3 3 3 3 3 3 ,+3 3 3 3 3 3 3 3 3 3 3 3 3 3 3 3 3 3 3 ,+,+3 3 d.d.'+; ; )+  . . .       ",
"              q ; - d.d.d.d.3 3 3 3 3 3 3 3 3 3 3 3 3 3 3 3 3 3 3 3 3 3 3 3 3 3 3 3 3 3 3 3 3 3 3 3 3 d.d.U ; ; !+. . . . .     ",
"          . . ~+; ; {+d.d.d.d.3 3 3 3 ]+3 3 3 3 3 3 3 3 3 3 3 3 3 3 3 3 3 3 3 3 3 3 ,+,+3 3 3 3 3 3 d.d.d.- ; ; ^+.     . . .   ",
"        . . . . ; ; 9 /+d.d.d.d.d.d.d.d.d.d.d.d.d.d.3 3 3 3 3 3 3 d.d.d.d.d.d.d.d.d.d.d.d.(+_+:+<+[+}+o.; ; ; ; .         . . . ",
"      . . . . . |+; ; t.d.d.d.d.d.d.d.d.d.d.d.d.d.d.d.d.d.d.d.d.d.d.d.d.1+d.2+*+3+n.#+E.; ; ; ; ; ; ; ; ; ; ; 4+                ",
"      . . . . . . 5+; p ; ; - ; ; ; ; ; ; ; ; ; ; ; ; ; ; ; ; ; ; ; ; ; ; ; ; ; ; ; ; ; ; ; ; ; ; ; ; 6+7+8+9+        . . . .   ",
"    . . . .       0+; ; ; ; ; ; ; ; ; ; ; ; ; ; ; ; ; ; ; ; ; ; ; ; ; ; ; ; ; ; ; ; ; ; ; ; ; ; ; a+b+t . . .   . . . . . . . . ",
". . . . .           c+r ; ; ; ; ; ; ; ; ; ; d+; ; ; ; ; 0.; - ; ; - U ; ; e+f+g+h+i+j+k+  l++ + + + . . . . . . . . . . . . . . ",
". . . . .                                 + + + + + ; ; d.d.d.d.d.d.d.; ; m+@ @ @ + + + + + + @ @ + + . . . . . . . . . . . . . ",
". . . .                               + + + @ @ @ @ ; ; d.d.d.d.d.d.d.; ; n+@ @ @ @ + + + + @ @ @ @ + + @ @ . . .     . .       ",
"  . . . . . . . . . .           + + + + @ @ @ @ @ @ ; ; d.d.d.d.d.d.d.; ; o+@ @ @ @ @ + + @ @ @ @ @ @ @ @ @ @ . .               ",
"  . . . . . . . . . . . . . @ + + @ @ @ @ @ @ @ @ @ ; ; d.d.d.d.d.d.d.- ; p+. . @ @ @ @ + @ @     @ @ @ @ @ @ @ @               ",
"  . . . . . @ @ @ @ @ @ @ @ @ @ @ @ @ @ @ @ @ @ . . ; ; d.J.9.d.d.d.d.q+; r+. . . @ @ @ @ @         @ @ @ @ @ @ @ @ @           ",
". . @ @ @ @ @ @ @ @ @ @ @ @             @ @ . . . . ; ; d.s+U d.d.d.d.m.; t+. . . . . .                       @ @ @             ",
"                                                    ; ; d.A.- d.d.d.d.u+; v+. . . . . . . . .                                   ",
"                                                    q ; d.w+; d.d.d.d.v ; x+. . . . . . . . . . . .       . . . . . .           ",
"                          @ @ @ @                   V ; d.q+; d.d.d.d.d.; y+. . . . . . . . . . . . . . . . . . . . .           ",
"                        @ @ @ @ @ @                 q+; z+A+; B+d.d.d.C+; D+E+F+G+. . . . . . . . . . . . . . @ @ @ .           ",
"                @ @ @ @ @ @ @ @ @ @ @ @ @         . 0 ; H+I+; d.d.d.d.d.; J+K+K+K+L+. . . . . .             @ @ @ @ @           ",
"                    @ @ @ @       @ @ @ @ @         b.; M+N+; d.d.O+P+#+; Q+K+K+K+K+R+S+.           @ @     @ @ @ @ @ @         ",
"                        @           @ @ @ @ @       T+; M+U+- d.d.V+W+; ; X+K+K+K+K+K+Y+        @ @ @ @ @ @ @ @ @ @ @ @         ",
"                                                    Z+; d.`+ @d.d.W+W+; ; .@K++@@@K+K+#@      @ @ @ @ @ @ @ @ . . . @ @ @ @ @ @ ",
"@ @ @ @ @ . . .                                       ; $@`+%@&@- W+W+; *@K+K+=@-@K+K+;@    . . . . . . . . . . . . . @ @ @ @ @ ",
". . . . . . . . . . . . .                             >@; M+`+; ; W+W+,@K+K+'@`+@@K+)@!@  . . . . .     . . . . . . . . . . . . ",
". . . . . . . . . . . . . . . . . . . . . .               ~@`+{@]@M+W+K+K+K+K+=@^@/@. . . . . .           . . . . . . . . . . . ",
". . . . . . . . . . . . . . . . . .                         M+(@K+_@W+K+K+K+K+`+:@<@                            . . . . . . . . ",
". . . . . . . . . . . .                                     [@}@  |@1@2@Y+    3@4@                                . . .         "};
