/* XPM */
static char * wall_xpm[] = {
"64 64 318 2",
"  	c #9BB94E",
". 	c #79A863",
"+ 	c #679175",
"@ 	c #BFBA5B",
"# 	c #000000",
"$ 	c #010101",
"% 	c #020101",
"& 	c #020202",
"* 	c #030202",
"= 	c #B58C70",
"- 	c #745A48",
"; 	c #CF9879",
"> 	c #5C3C2E",
", 	c #040302",
"' 	c #070403",
") 	c #221B15",
"! 	c #100C0A",
"~ 	c #D5A584",
"{ 	c #291E18",
"] 	c #3A2D24",
"^ 	c #050303",
"/ 	c #080605",
"( 	c #7F624F",
"_ 	c #0F0C09",
": 	c #403127",
"< 	c #100B08",
"[ 	c #4B2A1E",
"} 	c #CA9D7D",
"| 	c #695141",
"1 	c #D4A483",
"2 	c #614B3C",
"3 	c #060504",
"4 	c #CD9F7F",
"5 	c #715746",
"6 	c #6D5443",
"7 	c #4A3A2E",
"8 	c #D5A483",
"9 	c #CB9D7E",
"0 	c #0F0705",
"a 	c #D4A181",
"b 	c #D5A484",
"c 	c #1E1713",
"d 	c #A65035",
"e 	c #AB5236",
"f 	c #BF7A5C",
"g 	c #D6A484",
"h 	c #CA8F70",
"i 	c #BB7153",
"j 	c #876652",
"k 	c #AD5639",
"l 	c #C38263",
"m 	c #D4A383",
"n 	c #CD9374",
"o 	c #6A3321",
"p 	c #C07C5D",
"q 	c #EACBB6",
"r 	c #EFD5C4",
"s 	c #CF9979",
"t 	c #080403",
"u 	c #321810",
"v 	c #C17D5F",
"w 	c #FDEEE4",
"x 	c #FEEFE6",
"y 	c #FDEEE5",
"z 	c #F8E5DC",
"A 	c #D19A87",
"B 	c #0A0504",
"C 	c #AE583C",
"D 	c #D6A584",
"E 	c #FAE9DE",
"F 	c #FEF0E6",
"G 	c #FBECE2",
"H 	c #A64F34",
"I 	c #26120C",
"J 	c #D39F7F",
"K 	c #F8E4D8",
"L 	c #FDEFE5",
"M 	c #EED2C5",
"N 	c #110805",
"O 	c #9B4A31",
"P 	c #C98C6D",
"Q 	c #D9AC8E",
"R 	c #F0D6CA",
"S 	c #040202",
"T 	c #CF997A",
"U 	c #D5A585",
"V 	c #FAE7DB",
"W 	c #FEF0E7",
"X 	c #FCEDE3",
"Y 	c #A04D33",
"Z 	c #FCECE2",
"` 	c #FAE9DF",
" .	c #BF775F",
"..	c #9C4B31",
"+.	c #150A07",
"@.	c #FBEBE0",
"#.	c #A75035",
"$.	c #FCEBE2",
"%.	c #7A3B27",
"&.	c #B86A50",
"*.	c #8D432C",
"=.	c #FFEFE6",
"-.	c #FBEAE0",
";.	c #0A0404",
">.	c #742F29",
",.	c #4B2219",
"'.	c #ECCEC1",
").	c #411A17",
"!.	c #120706",
"~.	c #050302",
"{.	c #100805",
"].	c #AA5236",
"^.	c #D09B7B",
"/.	c #E9C9B9",
"(.	c #FCECE3",
"_.	c #1F0F0A",
":.	c #5B2620",
"<.	c #260F0E",
"[.	c #9A4A31",
"}.	c #EED3C7",
"|.	c #381814",
"1.	c #060303",
"2.	c #51271A",
"3.	c #793A26",
"4.	c #2A130E",
"5.	c #100606",
"6.	c #381B12",
"7.	c #E9C9B4",
"8.	c #472216",
"9.	c #4F201C",
"0.	c #090403",
"a.	c #2B150E",
"b.	c #D3A080",
"c.	c #59251F",
"d.	c #260F0D",
"e.	c #020201",
"f.	c #0E0605",
"g.	c #7C342B",
"h.	c #984631",
"i.	c #CB9071",
"j.	c #C7896A",
"k.	c #28130D",
"l.	c #461C19",
"m.	c #752F29",
"n.	c #83382C",
"o.	c #D5A383",
"p.	c #DFB6A5",
"q.	c #54291B",
"r.	c #451C18",
"s.	c #5F2621",
"t.	c #16110D",
"u.	c #D9CCC4",
"v.	c #0B0503",
"w.	c #642823",
"x.	c #56231F",
"y.	c #131211",
"z.	c #492316",
"A.	c #6D2C26",
"B.	c #4A1E1A",
"C.	c #180A08",
"D.	c #753029",
"E.	c #060302",
"F.	c #030101",
"G.	c #29110E",
"H.	c #0B0404",
"I.	c #7D352B",
"J.	c #010202",
"K.	c #702E28",
"L.	c #010201",
"M.	c #007747",
"N.	c #070303",
"O.	c #007C4A",
"P.	c #59241F",
"Q.	c #1A0B09",
"R.	c #34CF54",
"S.	c #003520",
"T.	c #5B2520",
"U.	c #2FDC58",
"V.	c #38C551",
"W.	c #24110B",
"X.	c #693221",
"Y.	c #010805",
"Z.	c #008751",
"`.	c #2D1210",
" +	c #31D656",
".+	c #813E29",
"++	c #0D0604",
"@+	c #000E09",
"#+	c #008851",
"$+	c #170908",
"%+	c #50201C",
"&+	c #0A0403",
"*+	c #007446",
"=+	c #672A24",
"-+	c #2FC650",
";+	c #2FDB57",
">+	c #8C402E",
",+	c #8C3E2E",
"'+	c #4E2419",
")+	c #2FDB58",
"!+	c #361613",
"~+	c #A95136",
"{+	c #32D957",
"]+	c #35D556",
"^+	c #47C051",
"/+	c #6E402E",
"(+	c #002818",
"_+	c #4B1E1B",
":+	c #6C9847",
"<+	c #30DA58",
"[+	c #679D49",
"}+	c #994732",
"|+	c #31D857",
"1+	c #32D556",
"2+	c #3F1916",
"3+	c #37D256",
"4+	c #30DB58",
"5+	c #53B34E",
"6+	c #7A342B",
"7+	c #964431",
"8+	c #00814E",
"9+	c #712E28",
"0+	c #655433",
"a+	c #732F29",
"b+	c #45A249",
"c+	c #52211D",
"d+	c #602821",
"e+	c #31DA57",
"f+	c #4FB84F",
"g+	c #7F362C",
"h+	c #30633E",
"i+	c #4F8B42",
"j+	c #31D756",
"k+	c #33D155",
"l+	c #A44D34",
"m+	c #A05E39",
"n+	c #964531",
"o+	c #38C652",
"p+	c #31D355",
"q+	c #048E52",
"r+	c #67382D",
"s+	c #32D456",
"t+	c #30D756",
"u+	c #6E3E2D",
"v+	c #5A703B",
"w+	c #37C652",
"x+	c #3BBF50",
"y+	c #828041",
"z+	c #4DBA4F",
"A+	c #AA5136",
"B+	c #4E8E42",
"C+	c #743029",
"D+	c #3A5B3D",
"E+	c #008650",
"F+	c #2FDA58",
"G+	c #2FDC57",
"H+	c #6E3D2D",
"I+	c #72352B",
"J+	c #47A148",
"K+	c #2FDA57",
"L+	c #79332A",
"M+	c #3CBD50",
"N+	c #752F2A",
"O+	c #39C251",
"P+	c #2EDB57",
"Q+	c #72312A",
"R+	c #058350",
"S+	c #048F52",
"T+	c #0B9B52",
"U+	c #008750",
"V+	c #6E332B",
"W+	c #4B4E38",
"X+	c #763029",
"Y+	c #886439",
"Z+	c #47B94E",
"`+	c #76302A",
" @	c #30D656",
".@	c #2EDB58",
"+@	c #6F322A",
"@@	c #73302A",
"#@	c #775734",
"$@	c #9B4832",
"%@	c #8B3E2F",
"&@	c #35CE53",
"*@	c #57773D",
"=@	c #69382D",
"-@	c #68382D",
";@	c #2EDC57",
">@	c #2EDA58",
",@	c #048D52",
"'@	c #723029",
")@	c #5B6B3A",
"!@	c #70322B",
"~@	c #0C7E4D",
"{@	c #2BD558",
"]@	c #2C6641",
"^@	c #694C31",
"/@	c #574533",
"(@	c #6A372C",
"_@	c #6C352B",
":@	c #33603F",
"<@	c #13794B",
"[@	c #2DDA57",
"}@	c #12A753",
"|@	c #27CD57",
"1@	c #2CD757",
"2@	c #008651",
"3@	c #33BA50",
"4@	c #2FD657",
"5@	c #09814E",
"6@	c #216E45",
"7@	c #2FDD58",
"8@	c #028951",
"9@	c #059152",
"0@	c #2DDA58",
"a@	c #089552",
"b@	c #008752",
"c@	c #2EDC58",
"  .       . .                                                   + + + + +         + + + + +             @ @ @     . .           ",
"                                                            + + + + + + + +     + + + + + + +         @ @ @ @ @   . .           ",
"                  @ @ @ @ @                               + + + @ @ @ + + # $ $ $ $ @ @ @ @ + +     @ @ @ @ @ @ @ @ . .         ",
"        @ @ @ @ @ @ @ @ @ @           + + + + +     + + + # + @ @ @ @ $ $ $ $ $ $ $ $ $ # @ @ @ +   @ @ @ @ @ @ @ @ @           ",
"  @ @ @ @ @ @ @ @ @ @ @ @           + + + + + + + + $ # $ $ $ $ $ $ $ $ $ $ % & % $ $ $ $ $ # @ @ @ @ @ @ @ @ @ @ @ @           ",
"  @ @ @ @ @ @ @ @ @ @       + +   + + + @ @ + $ # $ $ $ $ $ $ $ $ $ $ $ $ * = - ; > , $ $ $ $ @ @ @ @ @ @ @ @ @ @ @ @ @ @       ",
"                          + + + + + + # $ $ $ $ $ $ $ $ $ $ $ ' ) * ! ~ ~ ~ ~ ~ ~ ~ ~ ~ { $ $ $ $ @ @ @ @ @ @ @ @ @ @ @ @       ",
"                          + + @ @ + + $ $ $ $ $ $ $ $ $ ] ^ / ( ~ ~ ~ ~ ~ ~ ~ ~ ~ ~ ~ ~ ~ $ $ $ $ # @ @ @ . . @ @ @ @ @ @ @ @ @ ",
"@                 @ @ + + + @ @ @ $ $ $ $ $ $ % _ : ~ ~ ~ ~ ~ ~ ~ ~ ~ ~ ~ ~ ~ ~ ~ ~ ~ ~ ~ ~ ~ & $ $ $ @ . . . . @ @ @ @ @ @ @ @ ",
"              @ @ @ @ @ @ @ @ @ & $ $ $ $ $ < [ } ~ ~ ~ ~ ~ ~ ~ ~ ~ ~ ~ ~ ~ ~ ~ ~ ~ ~ ~ ~ ~ ~ | $ $ $ $ . . . . @ @ @ @ @ @     ",
"          @ @ @ @ @ @ @ @ # $ $ $ $ $ * 1 ~ ~ ~ ~ ~ ~ ~ ~ ~ ~ ~ ~ ~ ~ ~ ~ ~ ~ ~ ~ ~ ~ ~ ~ ~ ~ ~ ~ 2 3 $ $ . . .                 ",
"        @ @ @       @ @ @ $ $ $ $ $ 3 4 ~ ~ ~ ~ ~ ~ ~ ~ ~ ~ ~ ~ ~ ~ ~ ~ ~ ~ ~ ~ ~ ~ ~ ~ ~ ~ ~ ~ ~ ~ 5 $ $ $ . . .               ",
"    @ @ @ @           @ $ $ $ * 6 ~ ~ ~ ~ ~ ~ ~ ~ ~ ~ ~ ~ ~ ~ ~ ~ ~ ~ ~ ~ ~ ~ ~ ~ ~ ~ ~ ~ ~ ~ ~ ~ ~ ~ 7 $ $ $ . . .             ",
"                      $ $ $ % 8 ~ ~ ~ ~ ~ ~ ~ ~ ~ ~ ~ ~ ~ ~ ~ ~ ~ ~ ~ ~ ~ ~ ~ ~ ~ ~ ~ ~ ~ ~ ~ ~ ~ ~ ~ ~ 9 $ $ $ . . . .         ",
"                    # $ $ $ 0 a b ~ ~ ~ ~ ~ ~ ~ ~ ~ ~ ~ ~ ~ ~ ~ ~ ~ ~ ~ ~ ~ ~ ~ ~ ~ ~ ~ ~ ~ ~ ~ ~ ~ ~ ~ ~ c $ $ #               ",
"        . . .       $ $ $ d e e e e f g ~ ~ ~ ~ ~ ~ ~ ~ ~ ~ ~ ~ ~ ~ ~ ~ ~ ~ ~ ~ ~ ~ ~ ~ ~ ~ ~ ~ ~ ~ ~ ~ ~ ~ h $ $ $             ",
"      . . . . .     $ $ % e e e e e e i ~ ~ ~ ~ ~ ~ ~ ~ ~ ~ ~ ~ ~ ~ ~ ~ ~ ~ ~ ~ ~ ~ ~ ~ ~ ~ ~ ~ ~ ~ ~ ~ ~ ~ b j $ $ $           ",
"    . . . . . .   $ $ $ e e e e e e e e e k ~ ~ ~ ~ ~ ~ ~ ~ ~ ~ ~ ~ ~ ~ ~ ~ ~ ~ ~ ~ ~ ~ ~ ~ ~ ~ ~ ~ ~ ~ ~ ~ ~ ~ ~ * $ $ . . .   ",
". . . . . . . . # $ $ $ e e e e e e e e e e l m ~ ~ ~ ~ ~ ~ ~ ~ ~ ~ ~ ~ ~ ~ ~ ~ ~ ~ ~ ~ ~ ~ ~ ~ ~ ~ ~ ~ ~ ~ ~ ~ ~ n $ $ . . . . ",
". . . . . . . . $ $ $ o e e e e e e e e e e e e p b ~ ~ ~ ~ ~ ~ ~ ~ ~ ~ ~ ~ ~ ~ ~ ~ ~ ~ ~ ~ ~ ~ ~ ~ ~ ~ q r s e e e t $ # . . . ",
". . . . . . . $ $ $ u e e e e e e e e e e e e e e e v ~ ~ ~ ~ ~ ~ ~ ~ ~ ~ ~ ~ ~ ~ ~ ~ ~ ~ ~ ~ ~ ~ w x y z A e e e e B $ # . . . ",
". . . . . . # $ $ $ e e e e e e e e e e e e e e e e e C ~ ~ ~ ~ ~ b ~ ~ ~ b ~ ~ ~ ~ D b ~ ~ ~ ~ E F y G e e e e e e H $ $ . . . ",
". . . . . . $ $ $ I e e e e e e e e e e e e e e e e e e e J ~ ~ ~ ~ D ~ ~ ~ ~ ~ ~ ~ ~ ~ ~ ~ K x L M e e e e e e e e ' $ $ . . . ",
"      + + + $ $ N O e e e e e e e e e e e e e e e e e e e e P ~ ~ ~ b ~ ~ ~ ~ ~ ~ ~ ~ ~ Q x F x R e e e e e e e e e S $ $       ",
"    + + + # $ $ e e e e e e e e e e e e e e e e e e e e e e e T ~ ~ U ~ ~ ~ ~ ~ ~ ~ ~ V W W X e e e e e e e e e e e Y $ $ + + + ",
"+ + + @ @ $ $ $ e e e e e e e e e e e e e e e e e e e e e e e e b ~ ~ ~ ~ ~ ~ ~ ~ ~ Z F W `  .e e e e e e e e e e e ..$ $ + + + ",
"+ + @ @ $ $ $ +.e e e e e e e e e e e e e e e e e e e e e e e e e ~ ~ D ~ ~ ~ ~ @.F F x e e e e e e e e e e e e e e e $ $ @ @ @ ",
"@ @ @ @ $ $ $ #.e e e e e e e e e e e e e e e e e e e e e e e e e ~ ~ D ~ ~ ~ b F F $.e e e e e e e e e e e e e e e e $ $ @ @ @ ",
"@ @ @ @ $ $ %.e e e e e e e e e e e e e e e e e e e e e e e e e e ~ D D ~ ~ F W $.&.e e e e e e e e e e e e e e e e *.$ $ @ @ @ ",
"@ @ @ $ $ $ e e e e e e e e e e e e e e e e e e e e e e e e e e e ~ ~ D ~ =.x -.e e e e e e e e e e e e e e e e e e e $ $ @ @ @ ",
"@ @ @ $ $ ;.>.>.,.e e e e e e e e e e e e e e e e e e e e e e e e ~ ~ D y x '.e e e e e e e e e e e e e e e e e e e e $ $ @ @ @ ",
"@ @ @ $ $ ).>.>.!.* ~.{.e e e ].e e e e e e e e e e e e e e e e ^.~ ~ /.W (.e e e e e e e e e e e e e e e e e e e e e _.$     @ ",
"  @   $ $ :.>.>.>.<.* $ % [.e e e e e e e e e e e e e e e e e e ~ ~ ~ W W }.e e e e e e e e e e e e e e e e e e e e e u $       ",
"      $ $ |.>.>.>.>.>.>.1.% $ % 2.e e e e e e e e e e e e e e 8 ~ ~ X W e e e e e e e e e e e e e e e e e e e e e e e 3.$       ",
"      $ $ 4.>.>.>.>.>.>.>.5.$ $ $ 6.e e e e e e e e e e e e e g ~ 7.x L e e e e e e e e e e e e e e e e e e e e e e e e $       ",
"      $ $ 8.>.>.>.>.>.>.>.>.>.9.0.% * $ a.e e e e e e e e e b.~ ~ x x e e e e e e e e e e e e e e e e e e e e e e e e e $       ",
"      $ $ c.>.>.>.>.>.>.>.>.>.>.>.>.>.d.$ $ e.f.g.h.e e e i.~ ~ j.W L e e e e e e e e e e e e e e e e e e e e e k.e e e $       ",
"      $ $ l.>.>.>.>.>.>.>.>.>.>.>.>.>.>.* $ $ $ % * m.n.e o.~ o.` x p.e e e e e e e e e e e e e e e e e e e e e , q.e e $ #     ",
"      $ $ r.>.>.>.>.>.>.>.>.>.>.>.>.>.>.>.>.>.s.S $ $ $ $ t.! u.x e e e e e e e e e e e e e e e e e e e e e e e v.% e e $ .     ",
"      # $ w.>.>.>.>.>.>.>.>.>.>.>.>.>.>.>.>.>.>.x.l.* $ $ $ e.y.W e e e e e e e e e e e e e e e e e e e e e e e 0 % e e $ . .   ",
"      z.$ A.B.C.>.>.>.>.>.>.>.>.>.>.>.>.>.>.>.>.>.>.>.>.>.D.t $ E.e e e e e e e e e e e e e e e e e e e e e e e e.$ e e $ # . . ",
"      F.$ >.G.H.>.>.>.>.>.>.>.>.>.>.>.>.>.>.>.>.>.>.>.>.>.I.e.v.e e e e e e e e e e e e e e e e e e e e e e e e e.$ e e $ J.    ",
"      $ % K.* $ >.>.>.>.>.>.>.>.>.>.>.>.>.>.>.>.>.>.>.>.>.* % e e e e e e e e e e e e e e e e e e e e e e e e e e.$ e e $ L.M.  ",
"    . $ S >.N.$ >.>.>.>.>.>.>.>.>.>.>.>.>.>.>.>.>.>.>.>.>.% t e e e e e e e e e e e e e e e e e e e e e e e e e E.$ e e $ $ O.. ",
". . . $ P.>.Q.$ >.>.t >.>.R.>.>.>.>.>.>.>.>.>.>.>.>.>.>.~.% H e e e e e e e e e e e e e e e e e e e e e e e e e * $ e e e.$ S.. ",
". . . $ >.>.>.$ >.>.$ T.>.U.V.>.>.>.>.>.>.>.>.>.>.>.>.>.$ W.e e e e e e e e e e e e e e e e e e e e e e e e e e % $ e e X.$ Y.Z.",
". . . $ >.>.>.% >.>.$ `.>.U. +>.>.>.>.>.>.>.>.>.>.>.>.>.e..+e e e e e e e e e e e e e e e e e e e e e e e e e e * % e e ++$ @+#+",
"  . . $ >.>.>.$+%+>.$ $ >.U.U.>.>.>.>.>.>.>.>.>.>.>.>.% &+e e e e e e e e e e e e ].e e e e e e e e e e e e e e e e e e % $ *+Z.",
"  . . $ >.>.>.=+-+>.* $ >.U.;+>.>.>.>.>.>.>.>.>.>.>.T.$ >+e e e e e e e e e e e e e e e e e e e e e e e e e e e e e ,+'+$ L.Z.Z.",
"  . . 1.>.>.>.>.)+)+>.!+>.U.U.>.>.>.>.>.>.>.>.>.>.>.$ $ ~+{+e e e e e e e e e e e e e e e ]+^+e e e e e e e e e I./+>.>.$ (+Z.  ",
". . @ _+>.>.>.>.)+U.>.>.>.U.U.>.>.>.>.>.>.>.>.>.>.>.$ $ :+<+e e e e e e e e e e e e e e e ;+[+e e e e e e e e }+m.|+>.>.$ Z.Z.  ",
"      $ >.>.>.>.1+U.>.>.>.;+U.>.>.>.>.>.>.>.>.>.>.5.$ 2+3+4+e e e e e e e e e e e e e e e )+5+e e e e e 6+7+>.>.>.;+>.>.8+Z.Z.  ",
"        9+>.>.>.0+U.>.a+>.|+U.>.>.>.>.>.>.>.>.b+>.c+d+e U.e+e e e e e e e e e e e e e e e )+f+e e g+>.>.>.>.>.>.>.U.h+Z.Z.Z.Z.  ",
"          >.>.>.>.;+i+>.>.j+U.>.>.>.>.>.>.>.>.k+>.>.l+e U.<+e e e e e e e e e e e e e e e )+m+n+m.o+p+>.>.>.>.>.>.U.q+Z.Z.Z.Z.  ",
"                r+s+t+u+>.v+U.>.>.>.>.>.>.>.>.w+x+>.e e U.<+e e e e e e e e e e y+z+e A+>.)+B+>.>.;+U.>.C+>.D+Z.Z.U.Z.Z.Z.Z.E+  ",
"                @ F+G+H+>.b+U.I+>.>.>.>.>.>.>.J+K+C+e e U.{+e e e e e e e e ~+L+M+j+N+>.>.)+O+>.>.G+P+Q+Z.R+Z.Z.S+U.T+Z.Z.U+    ",
"                    )+@ Z.Z.U.V+W+C+>.>.>.>.D.X+)+Y+e e U.Z+`+>.>.>.>.>.>.>.>.>.b+U.>.>.>.)+ @>.C+K+P+Z.Z.Z.Z.Z.Z.U.Z.Z.Z.      ",
"                        @ Z..@Z.Z.+@@@>.>.>.>.>.)+#@$@%@U.&@>.>.>.>.>.>.>.>.>.>.*@U.>.>.>.)+P+=@-@;@>@Z.Z.Z.Z.Z.Z.G+,@Z.        ",
"                                  Z.Z.Z.'@>.>.>.)+P+>.>.U.)@>.>.>.>.>.>.>.>.C+>.!@U.~@Z.Z.>@;+Z.Z.U.{@Z.Z.Z.Z.Z.Z.;@@ @ @ @ @ @ ",
"@ @ @ @ @ . . .                     E+Z.]@@@>.>.)+P+>.>.U.^@>.>.>.Q+/@@@(@_@:@Z.<@[@}@Z.Z.|@)+Z.Z.U.1@Z.Z.Z.E+2@. U.. @ @ @ @ @ ",
". . . . . . . . . . . . .                   Z.Z.3@4@Z.Z.U.5@6@Z.Z.Z.Z.Z.Z.Z.Z.Z.Z.Z.7@8@Z.9@G+2@Z.U.0@  . . . . . . . . . . . . ",
". . . . . . . . . . . . . . . . . . . . . .         Z.Z.U.a@Z.Z.Z.U+          b@    c@. . . . .   U.7@    . . . . . . . . . . . ",
". . . . . . . . . . . . . . . . . .                     U.                          U.              U.          . . . . . . . . ",
". . . . . . . . . . . .                                                                                           . . .         "};
